<svg xmlns="http://www.w3.org/2000/svg" viewBox="0 0 1200 180" width="1200" height="180" preserveAspectRatio="none">
  <defs>
    <linearGradient id="bgA" x1="0" y1="0" x2="0" y2="1">
      <stop offset="0" stop-color="#05102a"/>
      <stop offset="1" stop-color="#0A1A40"/>
    </linearGradient>
    <filter id="glowA" x="-30%" y="-30%" width="160%" height="160%">
      <feDropShadow dx="0" dy="0" stdDeviation="5" flood-color="#29B6F6" flood-opacity="0.9"/>
    </filter>
    <style>
      @keyframes sweepA { from { transform: translateX(-450px);} to { transform: translateX(1650px);} }
      @keyframes pulseA { 0%,100% { opacity:.35;} 50% { opacity:1;} }
      .sA  { fill:#29B6F6; opacity:.16; animation: sweepA 7s linear infinite; }
      .sA2 { opacity:.09; animation-duration:11s; }
      .sA3 { opacity:.28; animation-duration:5s; }
      .glowA { stroke:#29B6F6; stroke-width:3; filter: drop-shadow(0 0 6px #29B6F6); animation: pulseA 3s ease-in-out infinite; }
    </style>
  </defs>
  <rect width="1200" height="180" fill="url(#bgA)"/>
  <g transform="skewX(-22)">
    <rect class="sA sA3" x="-440" y="-30" width="34" height="240"/>
    <rect class="sA"     x="-320" y="-30" width="90" height="240" style="animation-delay:-2s"/>
    <rect class="sA sA2" x="-220" y="-30" width="170" height="240" style="animation-delay:-4s"/>
    <rect class="sA sA3" x="-280" y="-30" width="20" height="240" style="animation-delay:-1s"/>
    <rect class="sA"     x="-160" y="-30" width="55" height="240" style="animation-delay:-5.5s"/>
    <rect class="sA sA2" x="-380" y="-30" width="120" height="240" style="animation-delay:-8s"/>
  </g>
  <line class="glowA" x1="0" y1="177" x2="1200" y2="177"/>
  <g transform="translate(156.2,135) scale(0.125,-0.125)" fill="#EAF6FF" filter="url(#glowA)">
    <path transform="translate(0,0)" d="M548 0H304Q178 0 118.0 50.0Q58 100 58 204V515Q58 620 118.0 670.0Q178 720 304 720H548Q584 720 584 684V563Q584 527 548 527H347Q286 527 286 477V239Q286 191 347 191H548Q584 191 584 155V36Q584 0 548 0Z"/>
<path transform="translate(628,0)" d="M260 0H105Q69 0 69 36V684Q69 720 105 720H260Q296 720 296 684V467H463V684Q463 720 499 720H654Q690 720 690 684V36Q690 0 654 0H499Q463 0 463 36V258H296V36Q296 0 260 0Z"/>
<path transform="translate(1387,0)" d="M89 0Q53 0 53 36V155Q53 191 89 191H188V527H89Q53 527 53 563V684Q53 720 89 720H515Q551 720 551 684V563Q551 527 515 527H418V191H515Q551 191 551 155V36Q551 0 515 0Z"/>
<path transform="translate(1992,0)" d="M255 0H105Q69 0 69 36V684Q69 720 105 720H209Q245 720 268 693L462 471V684Q462 720 498 720H648Q684 720 684 684V36Q684 0 648 0H498Q462 0 462 36V159L291 366V36Q291 0 255 0Z"/>
<path transform="translate(2745,0)" d="M619 0H304Q178 0 118.0 50.0Q58 100 58 204V516Q58 620 118.0 670.0Q178 720 304 720H554Q590 720 590 684V563Q590 527 554 527H346Q285 527 285 477V238Q285 189 331 189H428V345Q428 381 464 381H619Q655 381 655 345V36Q655 0 619 0Z"/>
<path transform="translate(3453,0)" d="M682 189Q682 143 668.5 105.5Q655 68 620.5 41.0Q586 14 526.0 -0.5Q466 -15 373 -15Q280 -15 220.0 -0.5Q160 14 125.5 41.0Q91 68 77.5 105.5Q64 143 64 189V684Q64 720 100 720H257Q293 720 293 684V228Q293 208 308.0 194.5Q323 181 375 181Q428 181 443.0 194.5Q458 208 458 228V684Q458 720 494 720H646Q682 720 682 684Z"/>
<path transform="translate(4199,0)" d="M255 0H105Q69 0 69 36V684Q69 720 105 720H209Q245 720 268 693L462 471V684Q462 720 498 720H648Q684 720 684 684V36Q684 0 648 0H498Q462 0 462 36V159L291 366V36Q291 0 255 0Z"/>
<path transform="translate(4952,0)" d="M624 189Q624 128 599.5 82.0Q575 36 512.0 10.5Q449 -15 331 -15Q215 -15 152.0 10.5Q89 36 65.0 82.0Q41 128 41 189V351Q41 387 77 387H222Q258 387 258 351V229Q258 209 270.5 195.5Q283 182 329 182Q373 182 384.0 195.5Q395 209 395 229V684Q395 720 431 720H588Q624 720 624 684Z"/>
<path transform="translate(5640,0)" d="M273 36Q273 0 237 0H90Q54 0 54 36V300Q54 330 63.5 369.0Q73 408 93 460L180 687Q191 720 231 720H500Q539 720 550 687L637 460Q657 408 666.5 369.0Q676 330 676 300V36Q676 0 640 0H489Q450 0 450 36V176H273ZM330 510 283 358H440L393 510Q386 527 374 527H349Q337 527 330 510Z"/>
<path transform="translate(6370,0)" d="M495 0H235Q216 0 204.0 7.0Q192 14 184 33L86 278Q74 308 67.0 328.0Q60 348 57.0 368.5Q54 389 54 420V684Q54 720 90 720H249Q288 720 288 684V408Q288 398 290.0 388.0Q292 378 296 367L343 227Q348 210 362 210H373Q387 210 392 227L439 368Q443 379 445.0 389.0Q447 399 447 409V684Q447 720 483 720H640Q676 720 676 684V420Q676 389 673.0 368.5Q670 348 663.0 328.0Q656 308 644 278L546 33Q539 14 527.0 7.0Q515 0 495 0Z"/>
  </g>
</svg>
