<svg xmlns="http://www.w3.org/2000/svg" viewBox="0 0 1200 72" width="1200" height="72" preserveAspectRatio="none">
  <defs>
    <linearGradient id="bg" x1="0" y1="0" x2="1" y2="1">
      <stop offset="0" stop-color="#1c4488"/><stop offset="0.5" stop-color="#15356e"/><stop offset="1" stop-color="#102a59"/>
    </linearGradient>
  </defs>
  <rect width="1200" height="72" fill="url(#bg)"/>
  <g transform="skewX(-20)" fill="#79a8e0">
    <rect x="-40"  y="-10" width="130" height="100" opacity="0.10"/>
    <rect x="170"  y="-10" width="55"  height="100" opacity="0.07"/>
    <rect x="980"  y="-10" width="150" height="100" opacity="0.10"/>
    <rect x="1185" y="-10" width="45"  height="100" opacity="0.07"/>
  </g>
  <rect x="0" y="0" width="1200" height="2" fill="#6cc2f0" opacity="0.30"/>
  <rect x="0" y="70" width="1200" height="2" fill="#6cc2f0" opacity="0.30"/>
  <g><path d="M474.6 26.0 L482.6 36.0 L474.6 46.0" fill="none" stroke="#6cc2f0" stroke-width="4" stroke-linecap="round" stroke-linejoin="round" opacity="0.9"/><path d="M485.6 26.0 L493.6 36.0 L485.6 46.0" fill="none" stroke="#6cc2f0" stroke-width="4" stroke-linecap="round" stroke-linejoin="round" opacity="0.9"/><path d="M713.4 26.0 L705.4 36.0 L713.4 46.0" fill="none" stroke="#6cc2f0" stroke-width="4" stroke-linecap="round" stroke-linejoin="round" opacity="0.9"/><path d="M702.4 26.0 L694.4 36.0 L702.4 46.0" fill="none" stroke="#6cc2f0" stroke-width="4" stroke-linecap="round" stroke-linejoin="round" opacity="0.9"/></g>
  <g transform="translate(516.6,50.4) scale(0.0408,-0.0408)" fill="#F2F8FF">
    <path transform="translate(0,0)" d="M403 0H87Q51 0 51 36V153Q51 189 87 189H356Q369 189 375.5 197.5Q382 206 382 218Q382 235 375.5 243.0Q369 251 356 252L206 273Q136 284 93.5 319.5Q51 355 51 439V544Q51 630 106.0 675.0Q161 720 258 720H538Q574 720 574 684V565Q574 529 538 529H305Q278 529 278 499Q278 470 305 467L454 447Q501 440 536.0 422.5Q571 405 590.5 371.0Q610 337 610 281V176Q610 91 555.0 45.5Q500 0 403 0Z"/><path transform="translate(650,0)" d="M409 0H247Q211 0 211 36V527H64Q28 527 28 563V684Q28 720 64 720H592Q628 720 628 684V563Q628 527 592 527H445V36Q445 0 409 0Z"/><path transform="translate(1306,0)" d="M273 36Q273 0 237 0H90Q54 0 54 36V300Q54 330 63.5 369.0Q73 408 93 460L180 687Q191 720 231 720H500Q539 720 550 687L637 460Q657 408 666.5 369.0Q676 330 676 300V36Q676 0 640 0H489Q450 0 450 36V176H273ZM330 510 283 358H440L393 510Q386 527 374 527H349Q337 527 330 510Z"/><path transform="translate(2036,0)" d="M409 0H247Q211 0 211 36V527H64Q28 527 28 563V684Q28 720 64 720H592Q628 720 628 684V563Q628 527 592 527H445V36Q445 0 409 0Z"/><path transform="translate(2692,0)" d="M682 189Q682 143 668.5 105.5Q655 68 620.5 41.0Q586 14 526.0 -0.5Q466 -15 373 -15Q280 -15 220.0 -0.5Q160 14 125.5 41.0Q91 68 77.5 105.5Q64 143 64 189V684Q64 720 100 720H257Q293 720 293 684V228Q293 208 308.0 194.5Q323 181 375 181Q428 181 443.0 194.5Q458 208 458 228V684Q458 720 494 720H646Q682 720 682 684Z"/><path transform="translate(3438,0)" d="M403 0H87Q51 0 51 36V153Q51 189 87 189H356Q369 189 375.5 197.5Q382 206 382 218Q382 235 375.5 243.0Q369 251 356 252L206 273Q136 284 93.5 319.5Q51 355 51 439V544Q51 630 106.0 675.0Q161 720 258 720H538Q574 720 574 684V565Q574 529 538 529H305Q278 529 278 499Q278 470 305 467L454 447Q501 440 536.0 422.5Q571 405 590.5 371.0Q610 337 610 281V176Q610 91 555.0 45.5Q500 0 403 0Z"/>
  </g>
</svg>
