<svg xmlns="http://www.w3.org/2000/svg" viewBox="0 0 1200 72" width="1200" height="72" preserveAspectRatio="none">
  <defs>
    <linearGradient id="bg" x1="0" y1="0" x2="1" y2="1">
      <stop offset="0" stop-color="#1c4488"/><stop offset="0.5" stop-color="#15356e"/><stop offset="1" stop-color="#102a59"/>
    </linearGradient>
  </defs>
  <rect width="1200" height="72" fill="url(#bg)"/>
  <g transform="skewX(-20)" fill="#79a8e0">
    <rect x="-40"  y="-10" width="130" height="100" opacity="0.10"/>
    <rect x="170"  y="-10" width="55"  height="100" opacity="0.07"/>
    <rect x="980"  y="-10" width="150" height="100" opacity="0.10"/>
    <rect x="1185" y="-10" width="45"  height="100" opacity="0.07"/>
  </g>
  <rect x="0" y="0" width="1200" height="2" fill="#6cc2f0" opacity="0.35"/>
  <rect x="0" y="70" width="1200" height="2" fill="#6cc2f0" opacity="0.35"/>
  <rect x="0" y="69" width="240" height="3" fill="#6cc2f0"/>
  <g><path d="M342.2 26.0 L350.2 36.0 L342.2 46.0" fill="none" stroke="#6cc2f0" stroke-width="4" stroke-linecap="round" stroke-linejoin="round" opacity="0.9"/><path d="M353.2 26.0 L361.2 36.0 L353.2 46.0" fill="none" stroke="#6cc2f0" stroke-width="4" stroke-linecap="round" stroke-linejoin="round" opacity="0.9"/><path d="M845.8 26.0 L837.8 36.0 L845.8 46.0" fill="none" stroke="#6cc2f0" stroke-width="4" stroke-linecap="round" stroke-linejoin="round" opacity="0.9"/><path d="M834.8 26.0 L826.8 36.0 L834.8 46.0" fill="none" stroke="#6cc2f0" stroke-width="4" stroke-linecap="round" stroke-linejoin="round" opacity="0.9"/></g>
  <g transform="translate(384.2,50.4) scale(0.0408,-0.0408)" fill="#F2F8FF">
    <path transform="translate(0,0)" d="M619 0H304Q178 0 118.0 50.0Q58 100 58 204V516Q58 620 118.0 670.0Q178 720 304 720H554Q590 720 590 684V563Q590 527 554 527H346Q285 527 285 477V238Q285 189 331 189H428V345Q428 381 464 381H619Q655 381 655 345V36Q655 0 619 0Z"/><path transform="translate(708,0)" d="M89 0Q53 0 53 36V155Q53 191 89 191H188V527H89Q53 527 53 563V684Q53 720 89 720H515Q551 720 551 684V563Q551 527 515 527H418V191H515Q551 191 551 155V36Q551 0 515 0Z"/><path transform="translate(1313,0)" d="M409 0H247Q211 0 211 36V527H64Q28 527 28 563V684Q28 720 64 720H592Q628 720 628 684V563Q628 527 592 527H445V36Q445 0 409 0Z"/><path transform="translate(1969,0)" d="M260 0H105Q69 0 69 36V684Q69 720 105 720H260Q296 720 296 684V467H463V684Q463 720 499 720H654Q690 720 690 684V36Q690 0 654 0H499Q463 0 463 36V258H296V36Q296 0 260 0Z"/><path transform="translate(2728,0)" d="M682 189Q682 143 668.5 105.5Q655 68 620.5 41.0Q586 14 526.0 -0.5Q466 -15 373 -15Q280 -15 220.0 -0.5Q160 14 125.5 41.0Q91 68 77.5 105.5Q64 143 64 189V684Q64 720 100 720H257Q293 720 293 684V228Q293 208 308.0 194.5Q323 181 375 181Q428 181 443.0 194.5Q458 208 458 228V684Q458 720 494 720H646Q682 720 682 684Z"/><path transform="translate(3474,0)" d="M489 0H105Q69 0 69 36V684Q69 720 105 720H424Q522 720 569.0 683.0Q616 646 616 567V519Q616 436 557 411Q622 405 652.5 367.5Q683 330 683 256V164Q683 80 636.0 40.0Q589 0 489 0ZM294 288V170H424Q462 170 462 210V249Q462 288 424 288ZM294 550V442H379Q417 442 417 482V510Q417 550 379 550Z"/><path transform="translate(4424,0)" d="M273 36Q273 0 237 0H90Q54 0 54 36V300Q54 330 63.5 369.0Q73 408 93 460L180 687Q191 720 231 720H500Q539 720 550 687L637 460Q657 408 666.5 369.0Q676 330 676 300V36Q676 0 640 0H489Q450 0 450 36V176H273ZM330 510 283 358H440L393 510Q386 527 374 527H349Q337 527 330 510Z"/><path transform="translate(5154,0)" d="M255 0H105Q69 0 69 36V684Q69 720 105 720H209Q245 720 268 693L462 471V684Q462 720 498 720H648Q684 720 684 684V36Q684 0 648 0H498Q462 0 462 36V159L291 366V36Q291 0 255 0Z"/><path transform="translate(5907,0)" d="M273 36Q273 0 237 0H90Q54 0 54 36V300Q54 330 63.5 369.0Q73 408 93 460L180 687Q191 720 231 720H500Q539 720 550 687L637 460Q657 408 666.5 369.0Q676 330 676 300V36Q676 0 640 0H489Q450 0 450 36V176H273ZM330 510 283 358H440L393 510Q386 527 374 527H349Q337 527 330 510Z"/><path transform="translate(6637,0)" d="M614 0H105Q69 0 69 36V684Q69 720 105 720H260Q296 720 296 684V189H433V351Q433 387 469 387H614Q650 387 650 351V36Q650 0 614 0Z"/><path transform="translate(7332,0)" d="M434 0H272Q236 0 236 36V164L83 369Q68 390 59.5 406.0Q51 422 48.0 441.5Q45 461 45 492V684Q45 720 81 720H235Q271 720 271 684V520Q271 510 272.0 499.5Q273 489 280 478L326 406Q336 389 350 389H360Q374 389 384 406L430 478Q437 489 438.0 499.5Q439 510 439 520V684Q439 720 475 720H624Q660 720 660 684V492Q660 461 657.0 441.5Q654 422 645.5 406.0Q637 390 622 369L470 163V36Q470 0 434 0Z"/><path transform="translate(8037,0)" d="M409 0H247Q211 0 211 36V527H64Q28 527 28 563V684Q28 720 64 720H592Q628 720 628 684V563Q628 527 592 527H445V36Q445 0 409 0Z"/><path transform="translate(8693,0)" d="M89 0Q53 0 53 36V155Q53 191 89 191H188V527H89Q53 527 53 563V684Q53 720 89 720H515Q551 720 551 684V563Q551 527 515 527H418V191H515Q551 191 551 155V36Q551 0 515 0Z"/><path transform="translate(9298,0)" d="M548 0H304Q178 0 118.0 50.0Q58 100 58 204V515Q58 620 118.0 670.0Q178 720 304 720H548Q584 720 584 684V563Q584 527 548 527H347Q286 527 286 477V239Q286 191 347 191H548Q584 191 584 155V36Q584 0 548 0Z"/><path transform="translate(9926,0)" d="M403 0H87Q51 0 51 36V153Q51 189 87 189H356Q369 189 375.5 197.5Q382 206 382 218Q382 235 375.5 243.0Q369 251 356 252L206 273Q136 284 93.5 319.5Q51 355 51 439V544Q51 630 106.0 675.0Q161 720 258 720H538Q574 720 574 684V565Q574 529 538 529H305Q278 529 278 499Q278 470 305 467L454 447Q501 440 536.0 422.5Q571 405 590.5 371.0Q610 337 610 281V176Q610 91 555.0 45.5Q500 0 403 0Z"/>
  </g>
</svg>
