<svg xmlns="http://www.w3.org/2000/svg" viewBox="0 0 800 86" width="800" height="86" preserveAspectRatio="xMidYMid meet">
  <defs>
    <linearGradient id="bg" x1="0" y1="0" x2="0" y2="1"><stop offset="0" stop-color="#0c1f47"/><stop offset="1" stop-color="#081634"/></linearGradient>
    <clipPath id="clip"><rect x="0" y="0" width="800" height="86" rx="10"/></clipPath>
  </defs>
  <g clip-path="url(#clip)">
    <rect width="800" height="86" fill="url(#bg)"/>
    <g transform="skewX(-22)" fill="#2a4f8a" opacity="0.12">
      <rect x="-300" y="-20" width="26" height="140"/>
      <rect x="-210" y="-20" width="70" height="140"/>
      <rect x="-120" y="-20" width="40" height="140"/>
    </g>
    <rect x="0" y="83" width="800" height="3" fill="#2E9BD6" opacity="0.85"/>
    <g transform="translate(224.1,54) scale(0.0556,-0.0556)" fill="#E6F1FB">
      <path transform="translate(0,0)" d="M409 0H247Q211 0 211 36V527H64Q28 527 28 563V684Q28 720 64 720H592Q628 720 628 684V563Q628 527 592 527H445V36Q445 0 409 0Z"/><path transform="translate(656,0)" d="M569 0H105Q69 0 69 36V684Q69 720 105 720H569Q605 720 605 684V567Q605 531 569 531H293V454H488Q524 454 524 418V311Q524 275 488 275H293V189H569Q605 189 605 153V36Q605 0 569 0Z"/><path transform="translate(1310,0)" d="M548 0H304Q178 0 118.0 50.0Q58 100 58 204V515Q58 620 118.0 670.0Q178 720 304 720H548Q584 720 584 684V563Q584 527 548 527H347Q286 527 286 477V239Q286 191 347 191H548Q584 191 584 155V36Q584 0 548 0Z"/><path transform="translate(1938,0)" d="M260 0H105Q69 0 69 36V684Q69 720 105 720H260Q296 720 296 684V467H463V684Q463 720 499 720H654Q690 720 690 684V36Q690 0 654 0H499Q463 0 463 36V258H296V36Q296 0 260 0Z"/><path transform="translate(2922,0)" d="M403 0H87Q51 0 51 36V153Q51 189 87 189H356Q369 189 375.5 197.5Q382 206 382 218Q382 235 375.5 243.0Q369 251 356 252L206 273Q136 284 93.5 319.5Q51 355 51 439V544Q51 630 106.0 675.0Q161 720 258 720H538Q574 720 574 684V565Q574 529 538 529H305Q278 529 278 499Q278 470 305 467L454 447Q501 440 536.0 422.5Q571 405 590.5 371.0Q610 337 610 281V176Q610 91 555.0 45.5Q500 0 403 0Z"/><path transform="translate(3572,0)" d="M409 0H247Q211 0 211 36V527H64Q28 527 28 563V684Q28 720 64 720H592Q628 720 628 684V563Q628 527 592 527H445V36Q445 0 409 0Z"/><path transform="translate(4228,0)" d="M273 36Q273 0 237 0H90Q54 0 54 36V300Q54 330 63.5 369.0Q73 408 93 460L180 687Q191 720 231 720H500Q539 720 550 687L637 460Q657 408 666.5 369.0Q676 330 676 300V36Q676 0 640 0H489Q450 0 450 36V176H273ZM330 510 283 358H440L393 510Q386 527 374 527H349Q337 527 330 510Z"/><path transform="translate(4958,0)" d="M548 0H304Q178 0 118.0 50.0Q58 100 58 204V515Q58 620 118.0 670.0Q178 720 304 720H548Q584 720 584 684V563Q584 527 548 527H347Q286 527 286 477V239Q286 191 347 191H548Q584 191 584 155V36Q584 0 548 0Z"/><path transform="translate(5586,0)" d="M260 0H105Q69 0 69 36V684Q69 720 105 720H260Q296 720 296 684V454H336L439 687Q453 720 489 720H643Q679 720 665 687L563 454Q619 451 652.5 414.5Q686 378 686 318V36Q686 0 650 0H496Q460 0 460 36V231Q460 265 428 265H296V36Q296 0 260 0Z"/>
    </g>
  </g>
</svg>
