<svg xmlns="http://www.w3.org/2000/svg" viewBox="0 0 800 86" width="800" height="86" preserveAspectRatio="xMidYMid meet">
  <defs>
    <linearGradient id="bg" x1="0" y1="0" x2="0" y2="1"><stop offset="0" stop-color="#0c1f47"/><stop offset="1" stop-color="#081634"/></linearGradient>
    <clipPath id="clip"><rect x="0" y="0" width="800" height="86" rx="10"/></clipPath>
  </defs>
  <g clip-path="url(#clip)">
    <rect width="800" height="86" fill="url(#bg)"/>
    <g transform="skewX(-22)" fill="#2a4f8a" opacity="0.12">
      <rect x="-300" y="-20" width="26" height="140"/>
      <rect x="-210" y="-20" width="70" height="140"/>
      <rect x="-120" y="-20" width="40" height="140"/>
    </g>
    <rect x="0" y="83" width="800" height="3" fill="#2E9BD6" opacity="0.85"/>
    <g transform="translate(266.4,54) scale(0.0556,-0.0556)" fill="#E6F1FB">
      <path transform="translate(0,0)" d="M548 0H304Q178 0 118.0 50.0Q58 100 58 204V515Q58 620 118.0 670.0Q178 720 304 720H548Q584 720 584 684V563Q584 527 548 527H347Q286 527 286 477V239Q286 191 347 191H548Q584 191 584 155V36Q584 0 548 0Z"/><path transform="translate(628,0)" d="M679 189Q679 143 665.5 105.5Q652 68 618.0 41.0Q584 14 523.5 -0.5Q463 -15 369 -15Q275 -15 214.5 -0.5Q154 14 120.0 41.0Q86 68 72.0 105.5Q58 143 58 189V530Q58 576 72.0 613.5Q86 651 120.0 678.0Q154 705 214.5 720.0Q275 735 369 735Q463 735 523.5 720.0Q584 705 618.0 678.0Q652 651 665.5 613.5Q679 576 679 530ZM285 225Q285 205 300.0 191.5Q315 178 369 178Q424 178 438.5 191.5Q453 205 453 225V494Q453 514 438.5 527.0Q424 540 369 540Q315 540 300.0 527.0Q285 514 285 494Z"/><path transform="translate(1365,0)" d="M255 0H105Q69 0 69 36V684Q69 720 105 720H209Q245 720 268 693L462 471V684Q462 720 498 720H648Q684 720 684 684V36Q684 0 648 0H498Q462 0 462 36V159L291 366V36Q291 0 255 0Z"/><path transform="translate(2118,0)" d="M255 0H105Q69 0 69 36V684Q69 720 105 720H209Q245 720 268 693L462 471V684Q462 720 498 720H648Q684 720 684 684V36Q684 0 648 0H498Q462 0 462 36V159L291 366V36Q291 0 255 0Z"/><path transform="translate(2871,0)" d="M569 0H105Q69 0 69 36V684Q69 720 105 720H569Q605 720 605 684V567Q605 531 569 531H293V454H488Q524 454 524 418V311Q524 275 488 275H293V189H569Q605 189 605 153V36Q605 0 569 0Z"/><path transform="translate(3525,0)" d="M548 0H304Q178 0 118.0 50.0Q58 100 58 204V515Q58 620 118.0 670.0Q178 720 304 720H548Q584 720 584 684V563Q584 527 548 527H347Q286 527 286 477V239Q286 191 347 191H548Q584 191 584 155V36Q584 0 548 0Z"/><path transform="translate(4153,0)" d="M409 0H247Q211 0 211 36V527H64Q28 527 28 563V684Q28 720 64 720H592Q628 720 628 684V563Q628 527 592 527H445V36Q445 0 409 0Z"/>
    </g>
  </g>
</svg>
