<svg xmlns="http://www.w3.org/2000/svg" viewBox="0 0 880 260" width="880" height="260">
  <defs>
    <linearGradient id="bg" x1="0" y1="0" x2="1" y2="1">
      <stop offset="0" stop-color="#163a78"/><stop offset="0.55" stop-color="#11305f"/><stop offset="1" stop-color="#0e2750"/>
    </linearGradient>
    <clipPath id="r"><rect x="0" y="0" width="880" height="260" rx="14"/></clipPath>
  </defs>
  <g clip-path="url(#r)">
    <rect width="880" height="260" fill="url(#bg)"/>
    <g transform="skewX(-20)" fill="#79a8e0">
      <rect x="700" y="-10" width="120" height="280" opacity="0.06"/>
      <rect x="860" y="-10" width="40"  height="280" opacity="0.05"/>
    </g>
    <rect x="0" y="0" width="6" height="260" fill="#6cc2f0"/>
    <g transform="translate(48,49.12) scale(0.0210,-0.0210)" fill="#74c4ec"><path transform="translate(0,0)" d="M90 0V730H210L433 105Q431 130 428.5 166.5Q426 203 424.5 243.5Q423 284 423 320V730H510V0H390L168 625Q170 601 172.0 564.5Q174 528 175.5 487.5Q177 447 177 410V0Z"/><path transform="translate(600,0)" d="M300 -10Q234 -10 186.5 15.0Q139 40 113.5 87.5Q88 135 88 200V530Q88 596 113.5 643.0Q139 690 186.5 715.0Q234 740 300 740Q366 740 413.5 715.0Q461 690 486.5 643.0Q512 596 512 531V200Q512 135 486.5 87.5Q461 40 413.5 15.0Q366 -10 300 -10ZM300 71Q359 71 390.5 104.5Q422 138 422 200V530Q422 592 390.5 625.5Q359 659 300 659Q242 659 210.0 625.5Q178 592 178 530V200Q178 138 210.0 104.5Q242 71 300 71Z"/><path transform="translate(1200,0)" d="M109 0 25 730H111L166 190Q168 168 170.0 144.5Q172 121 173.5 100.0Q175 79 175 65Q177 79 178.5 100.0Q180 121 182.5 144.5Q185 168 188 190L256 730H349L411 190Q414 168 416.5 144.5Q419 121 421.5 100.0Q424 79 425 65Q426 79 427.5 100.0Q429 121 431.5 144.5Q434 168 436 190L493 730H575L489 0H376L314 550Q312 573 309.5 595.0Q307 617 305.0 636.0Q303 655 302 667Q301 655 298.5 636.0Q296 617 294.0 595.0Q292 573 289 550L222 0Z"/><path transform="translate(2400,0)" d="M115 0V730H205V82H535V0Z"/><path transform="translate(3000,0)" d="M100 0V730H520V648H189V422H485V341H189V82H520V0Z"/><path transform="translate(3600,0)" d="M50 0 240 730H361L550 0H459L411 194H190L142 0ZM208 270H392L336 495Q320 559 311.0 602.0Q302 645 300 658Q298 645 289.0 602.0Q280 559 264 496Z"/><path transform="translate(4200,0)" d="M92 0V730H318Q383 730 432.0 703.5Q481 677 508.0 630.0Q535 583 535 520Q535 446 496.5 393.0Q458 340 392 320L545 0H439L299 310H182V0ZM182 391H318Q374 391 408.0 426.5Q442 462 442 520Q442 579 408.0 614.0Q374 649 318 649H182Z"/><path transform="translate(4800,0)" d="M90 0V730H210L433 105Q431 130 428.5 166.5Q426 203 424.5 243.5Q423 284 423 320V730H510V0H390L168 625Q170 601 172.0 564.5Q174 528 175.5 487.5Q177 447 177 410V0Z"/><path transform="translate(5400,0)" d="M105 0V82H254V648H105V730H495V648H346V82H495V0Z"/><path transform="translate(6000,0)" d="M90 0V730H210L433 105Q431 130 428.5 166.5Q426 203 424.5 243.5Q423 284 423 320V730H510V0H390L168 625Q170 601 172.0 564.5Q174 528 175.5 487.5Q177 447 177 410V0Z"/><path transform="translate(6600,0)" d="M304 -10Q238 -10 189.5 15.0Q141 40 114.5 87.5Q88 135 88 200V530Q88 596 114.5 643.0Q141 690 189.5 715.0Q238 740 304 740Q370 740 418.0 714.5Q466 689 492.0 642.0Q518 595 518 530H428Q428 592 395.5 625.5Q363 659 304 659Q245 659 211.5 626.0Q178 593 178 531V200Q178 138 211.5 104.0Q245 70 304 70Q363 70 395.5 104.0Q428 138 428 200V290H280V372H518V200Q518 136 492.0 88.5Q466 41 418.0 15.5Q370 -10 304 -10Z"/></g><g transform="translate(312,49.12) scale(0.0210,-0.0210)" fill="#9fd4f0"><path transform="translate(0,0)" d="M233 35 395 240Q405 253 418.0 265.5Q431 278 440 285V294Q427 293 407.0 291.5Q387 290 370 290H40V370H370Q387 370 407.0 368.5Q427 367 440 365V374Q433 380 420.5 393.0Q408 406 395 421L233 625H338L570 330L339 35Z"/></g><g transform="translate(352,49.12) scale(0.0210,-0.0210)" fill="#EAF2FB"><path transform="translate(0,0)" d="M93 0V730H300Q400 730 456.5 680.0Q513 630 513 541Q513 491 492.0 454.0Q471 417 432.5 397.0Q394 377 340 378V393Q398 394 440.5 371.0Q483 348 506.5 305.0Q530 262 530 203Q530 141 504.0 95.0Q478 49 430.0 24.5Q382 0 315 0ZM181 81H305Q368 81 404.5 114.5Q441 148 441 206Q441 266 404.5 303.5Q368 341 305 341H181ZM181 419H299Q357 419 390.5 450.0Q424 481 424 534Q424 587 391.0 618.0Q358 649 300 649H181Z"/><path transform="translate(600,0)" d="M375 0Q327 0 291.0 19.0Q255 38 235.0 73.0Q215 108 215 155V648H30V730H305V155Q305 121 324.0 101.5Q343 82 375 82H550V0Z"/><path transform="translate(1200,0)" d="M252 -10Q165 -10 115.0 34.5Q65 79 65 155Q65 232 115.0 276.0Q165 320 250 320H420V375Q420 426 389.5 453.5Q359 481 303 481Q254 481 221.0 460.5Q188 440 183 405H93Q102 476 160.0 518.0Q218 560 305 560Q400 560 455.0 511.0Q510 462 510 378V0H422V105H407L422 120Q422 60 375.5 25.0Q329 -10 252 -10ZM274 61Q338 61 379.0 93.0Q420 125 420 175V253H252Q207 253 181.0 228.0Q155 203 155 160Q155 114 186.5 87.5Q218 61 274 61Z"/><path transform="translate(1800,0)" d="M90 0V90L398 468H98V550H499V460L185 82H510V0Z"/><path transform="translate(2400,0)" d="M300 -8Q234 -8 186.0 17.0Q138 42 111.5 89.5Q85 137 85 202V348Q85 414 111.5 461.0Q138 508 186.0 533.0Q234 558 300 558Q366 558 414.0 533.0Q462 508 488.5 461.0Q515 414 515 349V202Q515 137 488.5 89.5Q462 42 414.0 17.0Q366 -8 300 -8ZM300 72Q359 72 392.0 105.0Q425 138 425 202V348Q425 412 392.0 445.0Q359 478 300 478Q242 478 208.5 445.0Q175 412 175 348V202Q175 138 208.5 105.0Q242 72 300 72Z"/><path transform="translate(3000,0)" d="M111 0V550H199V445H220L191 380Q191 469 229.5 514.5Q268 560 344 560Q431 560 482.5 505.5Q534 451 534 358V325H444V350Q444 415 412.5 449.5Q381 484 323 484Q266 484 233.5 449.0Q201 414 201 350V0Z"/><path transform="translate(4200,0)" d="M300 260Q262 260 239.5 282.0Q217 304 217 341Q217 380 239.5 403.0Q262 426 300 426Q338 426 360.5 403.0Q383 380 383 341Q383 304 360.5 282.0Q338 260 300 260Z"/><path transform="translate(5400,0)" d="M300 -10Q262 -10 239.5 12.0Q217 34 217 71Q217 110 239.5 133.0Q262 156 300 156Q338 156 360.5 133.0Q383 110 383 71Q383 34 360.5 12.0Q338 -10 300 -10Z"/><path transform="translate(6000,0)" d="M90 0V730H210L433 105Q431 130 428.5 166.5Q426 203 424.5 243.5Q423 284 423 320V730H510V0H390L168 625Q170 601 172.0 564.5Q174 528 175.5 487.5Q177 447 177 410V0Z"/><path transform="translate(6600,0)" d="M100 0V730H520V648H189V422H485V341H189V82H520V0Z"/><path transform="translate(7200,0)" d="M255 0V649H55V731H545V649H345V0Z"/></g><g transform="translate(48,82.12) scale(0.0210,-0.0210)" fill="#74c4ec"><path transform="translate(0,0)" d="M95 0V731H525V649H183V406H499V324H185V0Z"/><path transform="translate(600,0)" d="M300 -10Q234 -10 186.5 15.0Q139 40 113.5 87.5Q88 135 88 200V530Q88 596 113.5 643.0Q139 690 186.5 715.0Q234 740 300 740Q366 740 413.5 715.0Q461 690 486.5 643.0Q512 596 512 531V200Q512 135 486.5 87.5Q461 40 413.5 15.0Q366 -10 300 -10ZM300 71Q359 71 390.5 104.5Q422 138 422 200V530Q422 592 390.5 625.5Q359 659 300 659Q242 659 210.0 625.5Q178 592 178 530V200Q178 138 210.0 104.5Q242 71 300 71Z"/><path transform="translate(1200,0)" d="M304 -10Q238 -10 189.5 15.0Q141 40 114.5 87.5Q88 135 88 200V530Q88 596 114.5 643.0Q141 690 189.5 715.0Q238 740 304 740Q370 740 418.0 714.5Q466 689 492.0 642.0Q518 595 518 530H428Q428 592 395.5 625.5Q363 659 304 659Q245 659 211.5 626.0Q178 593 178 531V200Q178 138 211.5 104.5Q245 71 304 71Q363 71 395.5 104.5Q428 138 428 200H518Q518 136 492.0 88.5Q466 41 418.0 15.5Q370 -10 304 -10Z"/><path transform="translate(1800,0)" d="M300 -10Q198 -10 144.0 46.5Q90 103 90 200V730H180V200Q180 140 209.5 105.0Q239 70 300 70Q360 70 390.0 105.0Q420 140 420 200V730H510V200Q510 102 456.5 46.0Q403 -10 300 -10Z"/><path transform="translate(2400,0)" d="M304 -10Q232 -10 180.5 14.0Q129 38 101.0 83.0Q73 128 72 190H162Q162 135 199.5 103.0Q237 71 304 71Q367 71 402.5 102.0Q438 133 438 188Q438 232 414.5 265.0Q391 298 347 311L248 342Q173 365 132.5 419.0Q92 473 92 546Q92 605 118.5 648.5Q145 692 193.0 716.5Q241 741 306 741Q402 741 460.0 687.5Q518 634 519 545H429Q429 599 396.5 629.5Q364 660 305 660Q247 660 214.5 632.0Q182 604 182 554Q182 509 206.0 476.0Q230 443 275 429L375 397Q448 374 488.0 319.0Q528 264 528 190Q528 130 500.0 85.0Q472 40 421.5 15.0Q371 -10 304 -10Z"/></g><g transform="translate(312,82.12) scale(0.0210,-0.0210)" fill="#9fd4f0"><path transform="translate(0,0)" d="M233 35 395 240Q405 253 418.0 265.5Q431 278 440 285V294Q427 293 407.0 291.5Q387 290 370 290H40V370H370Q387 370 407.0 368.5Q427 367 440 365V374Q433 380 420.5 393.0Q408 406 395 421L233 625H338L570 330L339 35Z"/></g><g transform="translate(352,82.12) scale(0.0210,-0.0210)" fill="#EAF2FB"><path transform="translate(0,0)" d="M93 0V730H300Q400 730 456.5 680.0Q513 630 513 541Q513 491 492.0 454.0Q471 417 432.5 397.0Q394 377 340 378V393Q398 394 440.5 371.0Q483 348 506.5 305.0Q530 262 530 203Q530 141 504.0 95.0Q478 49 430.0 24.5Q382 0 315 0ZM181 81H305Q368 81 404.5 114.5Q441 148 441 206Q441 266 404.5 303.5Q368 341 305 341H181ZM181 419H299Q357 419 390.5 450.0Q424 481 424 534Q424 587 391.0 618.0Q358 649 300 649H181Z"/><path transform="translate(600,0)" d="M252 -10Q165 -10 115.0 34.5Q65 79 65 155Q65 232 115.0 276.0Q165 320 250 320H420V375Q420 426 389.5 453.5Q359 481 303 481Q254 481 221.0 460.5Q188 440 183 405H93Q102 476 160.0 518.0Q218 560 305 560Q400 560 455.0 511.0Q510 462 510 378V0H422V105H407L422 120Q422 60 375.5 25.0Q329 -10 252 -10ZM274 61Q338 61 379.0 93.0Q420 125 420 175V253H252Q207 253 181.0 228.0Q155 203 155 160Q155 114 186.5 87.5Q218 61 274 61Z"/><path transform="translate(1200,0)" d="M304 -10Q238 -10 188.5 15.0Q139 40 112.0 87.5Q85 135 85 200V350Q85 416 112.0 463.0Q139 510 188.5 535.0Q238 560 304 560Q399 560 457.0 509.0Q515 458 518 370H428Q425 423 392.5 451.5Q360 480 304 480Q245 480 210.0 446.5Q175 413 175 351V200Q175 138 210.0 104.0Q245 70 304 70Q360 70 392.5 99.0Q425 128 428 180H518Q515 92 457.0 41.0Q399 -10 304 -10Z"/><path transform="translate(1800,0)" d="M95 0V730H185V323H291L451 550H554L369 288L557 0H452L292 245H185V0Z"/><path transform="translate(2400,0)" d="M300 -10Q235 -10 186.5 16.0Q138 42 111.5 89.5Q85 137 85 200V350Q85 414 111.5 461.0Q138 508 186.5 534.0Q235 560 300 560Q365 560 413.5 534.0Q462 508 488.5 461.0Q515 414 515 350V253H173V200Q173 135 206.0 100.5Q239 66 300 66Q352 66 384.0 84.5Q416 103 423 140H513Q504 71 445.5 30.5Q387 -10 300 -10ZM427 313V350Q427 415 394.5 450.0Q362 485 300 485Q239 485 206.0 450.0Q173 415 173 350V321H434Z"/><path transform="translate(3000,0)" d="M92 0V550H182V445H201L182 424Q182 489 221.0 524.5Q260 560 329 560Q412 560 461.0 509.0Q510 458 510 370V0H420V360Q420 419 388.5 450.5Q357 482 303 482Q247 482 214.5 448.0Q182 414 182 350V0Z"/><path transform="translate(3600,0)" d="M268 -10Q186 -10 135.5 45.0Q85 100 85 194V355Q85 450 135.0 505.0Q185 560 268 560Q336 560 377.0 523.0Q418 486 418 424L400 445H420L418 570V730H508V0H418V105H400L418 126Q418 63 377.0 26.5Q336 -10 268 -10ZM298 68Q354 68 386.0 103.0Q418 138 418 200V350Q418 412 386.0 447.0Q354 482 298 482Q241 482 208.0 448.0Q175 414 175 350V200Q175 136 208.0 102.0Q241 68 298 68Z"/><path transform="translate(4800,0)" d="M115 0V730H205V82H535V0Z"/><path transform="translate(5400,0)" d="M300 -8Q234 -8 186.0 17.0Q138 42 111.5 89.5Q85 137 85 202V348Q85 414 111.5 461.0Q138 508 186.0 533.0Q234 558 300 558Q366 558 414.0 533.0Q462 508 488.5 461.0Q515 414 515 349V202Q515 137 488.5 89.5Q462 42 414.0 17.0Q366 -8 300 -8ZM300 72Q359 72 392.0 105.0Q425 138 425 202V348Q425 412 392.0 445.0Q359 478 300 478Q242 478 208.5 445.0Q175 412 175 348V202Q175 138 208.5 105.0Q242 72 300 72Z"/><path transform="translate(6000,0)" d="M161 -180V-98H336Q378 -98 397.5 -79.0Q417 -60 417 -20V50L419 150H401L418 165Q418 105 378.0 70.0Q338 35 271 35Q186 35 137.0 90.5Q88 146 88 240V356Q88 450 137.0 505.0Q186 560 271 560Q338 560 378.0 525.0Q418 490 418 430L401 445H418V550H507V-20Q507 -94 461.5 -137.0Q416 -180 335 -180ZM298 113Q354 113 386.0 148.0Q418 183 418 245V350Q418 412 386.0 447.0Q354 482 298 482Q241 482 209.5 448.0Q178 414 178 350V245Q178 181 209.5 147.0Q241 113 298 113Z"/><path transform="translate(6600,0)" d="M85 0V82H280V468H110V550H370V82H555V0ZM315 649Q282 649 263.0 666.0Q244 683 244 712Q244 742 263.0 759.5Q282 777 315 777Q348 777 367.0 759.5Q386 742 386 712Q386 683 367.0 666.0Q348 649 315 649Z"/><path transform="translate(7200,0)" d="M304 -10Q238 -10 188.5 15.0Q139 40 112.0 87.5Q85 135 85 200V350Q85 416 112.0 463.0Q139 510 188.5 535.0Q238 560 304 560Q399 560 457.0 509.0Q515 458 518 370H428Q425 423 392.5 451.5Q360 480 304 480Q245 480 210.0 446.5Q175 413 175 351V200Q175 138 210.0 104.0Q245 70 304 70Q360 70 392.5 99.0Q425 128 428 180H518Q515 92 457.0 41.0Q399 -10 304 -10Z"/><path transform="translate(8400,0)" d="M300 260Q262 260 239.5 282.0Q217 304 217 341Q217 380 239.5 403.0Q262 426 300 426Q338 426 360.5 403.0Q383 380 383 341Q383 304 360.5 282.0Q338 260 300 260Z"/><path transform="translate(9600,0)" d="M50 0 240 730H361L550 0H459L411 194H190L142 0ZM208 270H392L336 495Q320 559 311.0 602.0Q302 645 300 658Q298 645 289.0 602.0Q280 559 264 496Z"/><path transform="translate(10200,0)" d="M375 0Q327 0 291.0 19.0Q255 38 235.0 73.0Q215 108 215 155V648H30V730H305V155Q305 121 324.0 101.5Q343 82 375 82H550V0Z"/><path transform="translate(10800,0)" d="M161 -180V-98H336Q378 -98 397.5 -79.0Q417 -60 417 -20V50L419 150H401L418 165Q418 105 378.0 70.0Q338 35 271 35Q186 35 137.0 90.5Q88 146 88 240V356Q88 450 137.0 505.0Q186 560 271 560Q338 560 378.0 525.0Q418 490 418 430L401 445H418V550H507V-20Q507 -94 461.5 -137.0Q416 -180 335 -180ZM298 113Q354 113 386.0 148.0Q418 183 418 245V350Q418 412 386.0 447.0Q354 482 298 482Q241 482 209.5 448.0Q178 414 178 350V245Q178 181 209.5 147.0Q241 113 298 113Z"/><path transform="translate(11400,0)" d="M300 -8Q234 -8 186.0 17.0Q138 42 111.5 89.5Q85 137 85 202V348Q85 414 111.5 461.0Q138 508 186.0 533.0Q234 558 300 558Q366 558 414.0 533.0Q462 508 488.5 461.0Q515 414 515 349V202Q515 137 488.5 89.5Q462 42 414.0 17.0Q366 -8 300 -8ZM300 72Q359 72 392.0 105.0Q425 138 425 202V348Q425 412 392.0 445.0Q359 478 300 478Q242 478 208.5 445.0Q175 412 175 348V202Q175 138 208.5 105.0Q242 72 300 72Z"/><path transform="translate(12000,0)" d="M111 0V550H199V445H220L191 380Q191 469 229.5 514.5Q268 560 344 560Q431 560 482.5 505.5Q534 451 534 358V325H444V350Q444 415 412.5 449.5Q381 484 323 484Q266 484 233.5 449.0Q201 414 201 350V0Z"/><path transform="translate(12600,0)" d="M85 0V82H280V468H110V550H370V82H555V0ZM315 649Q282 649 263.0 666.0Q244 683 244 712Q244 742 263.0 759.5Q282 777 315 777Q348 777 367.0 759.5Q386 742 386 712Q386 683 367.0 666.0Q348 649 315 649Z"/><path transform="translate(13200,0)" d="M360 0Q289 0 249.5 38.0Q210 76 210 145V468H55V550H210V705H300V550H520V468H300V145Q300 82 360 82H510V0Z"/><path transform="translate(13800,0)" d="M92 0V730H182V550V445H201L182 424Q182 489 221.0 524.5Q260 560 329 560Q412 560 461.0 509.0Q510 458 510 370V0H420V360Q420 419 388.5 451.5Q357 484 303 484Q247 484 214.5 449.0Q182 414 182 350V0Z"/><path transform="translate(14400,0)" d="M66 0V550H145V484H163L149 460Q149 506 173.5 533.0Q198 560 240 560Q286 560 311.0 526.0Q336 492 336 430L309 484H351L332 460Q332 506 357.5 533.0Q383 560 425 560Q477 560 505.5 521.0Q534 482 534 418V0H451V419Q451 453 436.5 472.0Q422 491 394 491Q367 491 351.5 472.5Q336 454 336 420V0H264V419Q264 454 248.5 472.5Q233 491 205 491Q177 491 163.0 472.5Q149 454 149 420V0Z"/><path transform="translate(15000,0)" d="M85 0V82H280V468H110V550H370V82H555V0ZM315 649Q282 649 263.0 666.0Q244 683 244 712Q244 742 263.0 759.5Q282 777 315 777Q348 777 367.0 759.5Q386 742 386 712Q386 683 367.0 666.0Q348 649 315 649Z"/><path transform="translate(15600,0)" d="M304 -10Q238 -10 188.5 15.0Q139 40 112.0 87.5Q85 135 85 200V350Q85 416 112.0 463.0Q139 510 188.5 535.0Q238 560 304 560Q399 560 457.0 509.0Q515 458 518 370H428Q425 423 392.5 451.5Q360 480 304 480Q245 480 210.0 446.5Q175 413 175 351V200Q175 138 210.0 104.0Q245 70 304 70Q360 70 392.5 99.0Q425 128 428 180H518Q515 92 457.0 41.0Q399 -10 304 -10Z"/><path transform="translate(16800,0)" d="M100 0V730H520V648H189V422H485V341H189V82H520V0Z"/><path transform="translate(17400,0)" d="M220 0V413H60V495H220V590Q220 655 261.0 692.5Q302 730 374 730H535V648H374Q343 648 326.5 633.5Q310 619 310 590V495H535V413H310V0Z"/><path transform="translate(18000,0)" d="M220 0V413H60V495H220V590Q220 655 261.0 692.5Q302 730 374 730H535V648H374Q343 648 326.5 633.5Q310 619 310 590V495H535V413H310V0Z"/><path transform="translate(18600,0)" d="M85 0V82H280V468H110V550H370V82H555V0ZM315 649Q282 649 263.0 666.0Q244 683 244 712Q244 742 263.0 759.5Q282 777 315 777Q348 777 367.0 759.5Q386 742 386 712Q386 683 367.0 666.0Q348 649 315 649Z"/><path transform="translate(19200,0)" d="M304 -10Q238 -10 188.5 15.0Q139 40 112.0 87.5Q85 135 85 200V350Q85 416 112.0 463.0Q139 510 188.5 535.0Q238 560 304 560Q399 560 457.0 509.0Q515 458 518 370H428Q425 423 392.5 451.5Q360 480 304 480Q245 480 210.0 446.5Q175 413 175 351V200Q175 138 210.0 104.0Q245 70 304 70Q360 70 392.5 99.0Q425 128 428 180H518Q515 92 457.0 41.0Q399 -10 304 -10Z"/><path transform="translate(19800,0)" d="M85 0V82H280V468H110V550H370V82H555V0ZM315 649Q282 649 263.0 666.0Q244 683 244 712Q244 742 263.0 759.5Q282 777 315 777Q348 777 367.0 759.5Q386 742 386 712Q386 683 367.0 666.0Q348 649 315 649Z"/><path transform="translate(20400,0)" d="M300 -10Q235 -10 186.5 16.0Q138 42 111.5 89.5Q85 137 85 200V350Q85 414 111.5 461.0Q138 508 186.5 534.0Q235 560 300 560Q365 560 413.5 534.0Q462 508 488.5 461.0Q515 414 515 350V253H173V200Q173 135 206.0 100.5Q239 66 300 66Q352 66 384.0 84.5Q416 103 423 140H513Q504 71 445.5 30.5Q387 -10 300 -10ZM427 313V350Q427 415 394.5 450.0Q362 485 300 485Q239 485 206.0 450.0Q173 415 173 350V321H434Z"/><path transform="translate(21000,0)" d="M92 0V550H182V445H201L182 424Q182 489 221.0 524.5Q260 560 329 560Q412 560 461.0 509.0Q510 458 510 370V0H420V360Q420 419 388.5 450.5Q357 482 303 482Q247 482 214.5 448.0Q182 414 182 350V0Z"/><path transform="translate(21600,0)" d="M304 -10Q238 -10 188.5 15.0Q139 40 112.0 87.5Q85 135 85 200V350Q85 416 112.0 463.0Q139 510 188.5 535.0Q238 560 304 560Q399 560 457.0 509.0Q515 458 518 370H428Q425 423 392.5 451.5Q360 480 304 480Q245 480 210.0 446.5Q175 413 175 351V200Q175 138 210.0 104.0Q245 70 304 70Q360 70 392.5 99.0Q425 128 428 180H518Q515 92 457.0 41.0Q399 -10 304 -10Z"/><path transform="translate(22200,0)" d="M178 -180 259 34 55 550H155L283 210Q290 193 296.0 169.5Q302 146 306 130Q310 146 316.0 169.5Q322 193 328 210L448 550H545L274 -180Z"/></g><g transform="translate(48,115.12) scale(0.0210,-0.0210)" fill="#74c4ec"><path transform="translate(0,0)" d="M304 -10Q232 -10 180.5 14.0Q129 38 101.0 83.0Q73 128 72 190H162Q162 135 199.5 103.0Q237 71 304 71Q367 71 402.5 102.0Q438 133 438 188Q438 232 414.5 265.0Q391 298 347 311L248 342Q173 365 132.5 419.0Q92 473 92 546Q92 605 118.5 648.5Q145 692 193.0 716.5Q241 741 306 741Q402 741 460.0 687.5Q518 634 519 545H429Q429 599 396.5 629.5Q364 660 305 660Q247 660 214.5 632.0Q182 604 182 554Q182 509 206.0 476.0Q230 443 275 429L375 397Q448 374 488.0 319.0Q528 264 528 190Q528 130 500.0 85.0Q472 40 421.5 15.0Q371 -10 304 -10Z"/><path transform="translate(600,0)" d="M255 0V273L35 730H128L273 430Q285 405 292.0 387.5Q299 370 301 362Q303 370 310.5 387.5Q318 405 330 430L472 730H565L345 273V0Z"/><path transform="translate(1200,0)" d="M304 -10Q232 -10 180.5 14.0Q129 38 101.0 83.0Q73 128 72 190H162Q162 135 199.5 103.0Q237 71 304 71Q367 71 402.5 102.0Q438 133 438 188Q438 232 414.5 265.0Q391 298 347 311L248 342Q173 365 132.5 419.0Q92 473 92 546Q92 605 118.5 648.5Q145 692 193.0 716.5Q241 741 306 741Q402 741 460.0 687.5Q518 634 519 545H429Q429 599 396.5 629.5Q364 660 305 660Q247 660 214.5 632.0Q182 604 182 554Q182 509 206.0 476.0Q230 443 275 429L375 397Q448 374 488.0 319.0Q528 264 528 190Q528 130 500.0 85.0Q472 40 421.5 15.0Q371 -10 304 -10Z"/><path transform="translate(1800,0)" d="M255 0V649H55V731H545V649H345V0Z"/><path transform="translate(2400,0)" d="M100 0V730H520V648H189V422H485V341H189V82H520V0Z"/><path transform="translate(3000,0)" d="M76 0V730H194L270 494Q281 462 290.0 430.5Q299 399 303 382Q308 399 316.0 430.5Q324 462 334 495L406 730H524V0H436V265Q436 309 439.0 365.0Q442 421 447.0 479.5Q452 538 457.5 591.5Q463 645 467 685L349 320H254L135 685Q140 646 145.0 594.5Q150 543 154.0 485.5Q158 428 161.0 371.0Q164 314 164 265V0Z"/><path transform="translate(3600,0)" d="M304 -10Q232 -10 180.5 14.0Q129 38 101.0 83.0Q73 128 72 190H162Q162 135 199.5 103.0Q237 71 304 71Q367 71 402.5 102.0Q438 133 438 188Q438 232 414.5 265.0Q391 298 347 311L248 342Q173 365 132.5 419.0Q92 473 92 546Q92 605 118.5 648.5Q145 692 193.0 716.5Q241 741 306 741Q402 741 460.0 687.5Q518 634 519 545H429Q429 599 396.5 629.5Q364 660 305 660Q247 660 214.5 632.0Q182 604 182 554Q182 509 206.0 476.0Q230 443 275 429L375 397Q448 374 488.0 319.0Q528 264 528 190Q528 130 500.0 85.0Q472 40 421.5 15.0Q371 -10 304 -10Z"/></g><g transform="translate(312,115.12) scale(0.0210,-0.0210)" fill="#9fd4f0"><path transform="translate(0,0)" d="M233 35 395 240Q405 253 418.0 265.5Q431 278 440 285V294Q427 293 407.0 291.5Q387 290 370 290H40V370H370Q387 370 407.0 368.5Q427 367 440 365V374Q433 380 420.5 393.0Q408 406 395 421L233 625H338L570 330L339 35Z"/></g><g transform="translate(352,115.12) scale(0.0210,-0.0210)" fill="#EAF2FB"><path transform="translate(0,0)" d="M95 0V731H525V649H183V406H499V324H185V0Z"/><path transform="translate(600,0)" d="M300 -10Q235 -10 186.5 16.0Q138 42 111.5 89.5Q85 137 85 200V350Q85 414 111.5 461.0Q138 508 186.5 534.0Q235 560 300 560Q365 560 413.5 534.0Q462 508 488.5 461.0Q515 414 515 350V253H173V200Q173 135 206.0 100.5Q239 66 300 66Q352 66 384.0 84.5Q416 103 423 140H513Q504 71 445.5 30.5Q387 -10 300 -10ZM427 313V350Q427 415 394.5 450.0Q362 485 300 485Q239 485 206.0 450.0Q173 415 173 350V321H434Z"/><path transform="translate(1200,0)" d="M268 -10Q186 -10 135.5 45.0Q85 100 85 194V355Q85 450 135.0 505.0Q185 560 268 560Q336 560 377.0 523.0Q418 486 418 424L400 445H420L418 570V730H508V0H418V105H400L418 126Q418 63 377.0 26.5Q336 -10 268 -10ZM298 68Q354 68 386.0 103.0Q418 138 418 200V350Q418 412 386.0 447.0Q354 482 298 482Q241 482 208.0 448.0Q175 414 175 350V200Q175 136 208.0 102.0Q241 68 298 68Z"/><path transform="translate(1800,0)" d="M300 -8Q234 -8 186.0 17.0Q138 42 111.5 89.5Q85 137 85 202V348Q85 414 111.5 461.0Q138 508 186.0 533.0Q234 558 300 558Q366 558 414.0 533.0Q462 508 488.5 461.0Q515 414 515 349V202Q515 137 488.5 89.5Q462 42 414.0 17.0Q366 -8 300 -8ZM300 72Q359 72 392.0 105.0Q425 138 425 202V348Q425 412 392.0 445.0Q359 478 300 478Q242 478 208.5 445.0Q175 412 175 348V202Q175 138 208.5 105.0Q242 72 300 72Z"/><path transform="translate(2400,0)" d="M111 0V550H199V445H220L191 380Q191 469 229.5 514.5Q268 560 344 560Q431 560 482.5 505.5Q534 451 534 358V325H444V350Q444 415 412.5 449.5Q381 484 323 484Q266 484 233.5 449.0Q201 414 201 350V0Z"/><path transform="translate(3000,0)" d="M252 -10Q165 -10 115.0 34.5Q65 79 65 155Q65 232 115.0 276.0Q165 320 250 320H420V375Q420 426 389.5 453.5Q359 481 303 481Q254 481 221.0 460.5Q188 440 183 405H93Q102 476 160.0 518.0Q218 560 305 560Q400 560 455.0 511.0Q510 462 510 378V0H422V105H407L422 120Q422 60 375.5 25.0Q329 -10 252 -10ZM274 61Q338 61 379.0 93.0Q420 125 420 175V253H252Q207 253 181.0 228.0Q155 203 155 160Q155 114 186.5 87.5Q218 61 274 61Z"/><path transform="translate(4200,0)" d="M485 -120Q343 -85 264.0 18.0Q185 121 185 270V450Q185 548 221.5 627.5Q258 707 325.5 762.0Q393 817 485 840V755Q421 740 374.0 697.5Q327 655 301.0 592.0Q275 529 275 450V270Q275 193 300.5 130.0Q326 67 373.5 25.5Q421 -16 485 -31Z"/><path transform="translate(4800,0)" d="M304 -10Q232 -10 180.5 14.0Q129 38 101.0 83.0Q73 128 72 190H162Q162 135 199.5 103.0Q237 71 304 71Q367 71 402.5 102.0Q438 133 438 188Q438 232 414.5 265.0Q391 298 347 311L248 342Q173 365 132.5 419.0Q92 473 92 546Q92 605 118.5 648.5Q145 692 193.0 716.5Q241 741 306 741Q402 741 460.0 687.5Q518 634 519 545H429Q429 599 396.5 629.5Q364 660 305 660Q247 660 214.5 632.0Q182 604 182 554Q182 509 206.0 476.0Q230 443 275 429L375 397Q448 374 488.0 319.0Q528 264 528 190Q528 130 500.0 85.0Q472 40 421.5 15.0Q371 -10 304 -10Z"/><path transform="translate(5400,0)" d="M123 0 35 550H115L170 160Q173 138 176.5 112.5Q180 87 182 70Q184 87 188.5 112.5Q193 138 196 160L257 550H343L404 160Q407 138 411.5 112.5Q416 87 418 70Q420 87 424.5 112.5Q429 138 432 160L489 550H565L473 0H374L315 380Q311 408 306.0 436.0Q301 464 299 480Q297 464 293.0 436.0Q289 408 284 380L222 0Z"/><path transform="translate(6000,0)" d="M252 -10Q165 -10 115.0 34.5Q65 79 65 155Q65 232 115.0 276.0Q165 320 250 320H420V375Q420 426 389.5 453.5Q359 481 303 481Q254 481 221.0 460.5Q188 440 183 405H93Q102 476 160.0 518.0Q218 560 305 560Q400 560 455.0 511.0Q510 462 510 378V0H422V105H407L422 120Q422 60 375.5 25.0Q329 -10 252 -10ZM274 61Q338 61 379.0 93.0Q420 125 420 175V253H252Q207 253 181.0 228.0Q155 203 155 160Q155 114 186.5 87.5Q218 61 274 61Z"/><path transform="translate(6600,0)" d="M178 -180 259 34 55 550H155L283 210Q290 193 296.0 169.5Q302 146 306 130Q310 146 316.0 169.5Q322 193 328 210L448 550H545L274 -180Z"/><path transform="translate(7200,0)" d="M115 -120V-31Q180 -16 227.0 25.5Q274 67 299.5 130.0Q325 193 325 270V450Q325 529 299.0 592.0Q273 655 226.0 697.5Q179 740 115 755V840Q208 817 275.0 762.0Q342 707 378.5 627.5Q415 548 415 450V270Q415 121 336.0 18.0Q257 -85 115 -120Z"/><path transform="translate(8400,0)" d="M300 260Q262 260 239.5 282.0Q217 304 217 341Q217 380 239.5 403.0Q262 426 300 426Q338 426 360.5 403.0Q383 380 383 341Q383 304 360.5 282.0Q338 260 300 260Z"/><path transform="translate(9600,0)" d="M92 0V730H281Q352 730 403.5 703.0Q455 676 483.5 627.0Q512 578 512 511V220Q512 153 483.5 103.5Q455 54 403.5 27.0Q352 0 281 0ZM182 80H281Q347 80 384.5 117.0Q422 154 422 220V511Q422 576 384.5 613.0Q347 650 281 650H182Z"/><path transform="translate(10200,0)" d="M300 -10Q235 -10 186.5 16.0Q138 42 111.5 89.5Q85 137 85 200V350Q85 414 111.5 461.0Q138 508 186.5 534.0Q235 560 300 560Q365 560 413.5 534.0Q462 508 488.5 461.0Q515 414 515 350V253H173V200Q173 135 206.0 100.5Q239 66 300 66Q352 66 384.0 84.5Q416 103 423 140H513Q504 71 445.5 30.5Q387 -10 300 -10ZM427 313V350Q427 415 394.5 450.0Q362 485 300 485Q239 485 206.0 450.0Q173 415 173 350V321H434Z"/><path transform="translate(10800,0)" d="M332 -10Q264 -10 223.0 26.5Q182 63 182 126L200 105H182V0H92V730H182V570L180 445H200L182 424Q182 486 223.5 523.0Q265 560 332 560Q415 560 465.0 505.0Q515 450 515 355V194Q515 100 465.0 45.0Q415 -10 332 -10ZM302 68Q359 68 392.0 102.0Q425 136 425 200V350Q425 414 392.0 448.0Q359 482 302 482Q247 482 214.5 447.0Q182 412 182 350V200Q182 138 214.5 103.0Q247 68 302 68Z"/><path transform="translate(11400,0)" d="M85 0V82H280V468H110V550H370V82H555V0ZM315 649Q282 649 263.0 666.0Q244 683 244 712Q244 742 263.0 759.5Q282 777 315 777Q348 777 367.0 759.5Q386 742 386 712Q386 683 367.0 666.0Q348 649 315 649Z"/><path transform="translate(12000,0)" d="M252 -10Q165 -10 115.0 34.5Q65 79 65 155Q65 232 115.0 276.0Q165 320 250 320H420V375Q420 426 389.5 453.5Q359 481 303 481Q254 481 221.0 460.5Q188 440 183 405H93Q102 476 160.0 518.0Q218 560 305 560Q400 560 455.0 511.0Q510 462 510 378V0H422V105H407L422 120Q422 60 375.5 25.0Q329 -10 252 -10ZM274 61Q338 61 379.0 93.0Q420 125 420 175V253H252Q207 253 181.0 228.0Q155 203 155 160Q155 114 186.5 87.5Q218 61 274 61Z"/><path transform="translate(12600,0)" d="M92 0V550H182V445H201L182 424Q182 489 221.0 524.5Q260 560 329 560Q412 560 461.0 509.0Q510 458 510 370V0H420V360Q420 419 388.5 450.5Q357 482 303 482Q247 482 214.5 448.0Q182 414 182 350V0Z"/><path transform="translate(13800,0)" d="M485 -120Q343 -85 264.0 18.0Q185 121 185 270V450Q185 548 221.5 627.5Q258 707 325.5 762.0Q393 817 485 840V755Q421 740 374.0 697.5Q327 655 301.0 592.0Q275 529 275 450V270Q275 193 300.5 130.0Q326 67 373.5 25.5Q421 -16 485 -31Z"/><path transform="translate(14400,0)" d="M304 -10Q238 -10 189.5 15.0Q141 40 114.5 87.5Q88 135 88 200V530Q88 596 114.5 643.0Q141 690 189.5 715.0Q238 740 304 740Q370 740 418.0 714.5Q466 689 492.0 642.0Q518 595 518 530H428Q428 592 395.5 625.5Q363 659 304 659Q245 659 211.5 626.0Q178 593 178 531V200Q178 138 211.5 104.0Q245 70 304 70Q363 70 395.5 104.0Q428 138 428 200V290H280V372H518V200Q518 136 492.0 88.5Q466 41 418.0 15.5Q370 -10 304 -10Z"/><path transform="translate(15000,0)" d="M90 0V730H210L433 105Q431 130 428.5 166.5Q426 203 424.5 243.5Q423 284 423 320V730H510V0H390L168 625Q170 601 172.0 564.5Q174 528 175.5 487.5Q177 447 177 410V0Z"/><path transform="translate(15600,0)" d="M300 -10Q234 -10 186.5 15.0Q139 40 113.5 87.5Q88 135 88 200V530Q88 596 113.5 643.0Q139 690 186.5 715.0Q234 740 300 740Q366 740 413.5 715.0Q461 690 486.5 643.0Q512 596 512 531V200Q512 135 486.5 87.5Q461 40 413.5 15.0Q366 -10 300 -10ZM300 71Q359 71 390.5 104.5Q422 138 422 200V530Q422 592 390.5 625.5Q359 659 300 659Q242 659 210.0 625.5Q178 592 178 530V200Q178 138 210.0 104.5Q242 71 300 71Z"/><path transform="translate(16200,0)" d="M76 0V730H194L270 494Q281 462 290.0 430.5Q299 399 303 382Q308 399 316.0 430.5Q324 462 334 495L406 730H524V0H436V265Q436 309 439.0 365.0Q442 421 447.0 479.5Q452 538 457.5 591.5Q463 645 467 685L349 320H254L135 685Q140 646 145.0 594.5Q150 543 154.0 485.5Q158 428 161.0 371.0Q164 314 164 265V0Z"/><path transform="translate(16800,0)" d="M100 0V730H520V648H189V422H485V341H189V82H520V0Z"/><path transform="translate(17400,0)" d="M115 -120V-31Q180 -16 227.0 25.5Q274 67 299.5 130.0Q325 193 325 270V450Q325 529 299.0 592.0Q273 655 226.0 697.5Q179 740 115 755V840Q208 817 275.0 762.0Q342 707 378.5 627.5Q415 548 415 450V270Q415 121 336.0 18.0Q257 -85 115 -120Z"/></g><g transform="translate(48,148.12) scale(0.0210,-0.0210)" fill="#74c4ec"><path transform="translate(0,0)" d="M109 0 25 730H111L166 190Q168 168 170.0 144.5Q172 121 173.5 100.0Q175 79 175 65Q177 79 178.5 100.0Q180 121 182.5 144.5Q185 168 188 190L256 730H349L411 190Q414 168 416.5 144.5Q419 121 421.5 100.0Q424 79 425 65Q426 79 427.5 100.0Q429 121 431.5 144.5Q434 168 436 190L493 730H575L489 0H376L314 550Q312 573 309.5 595.0Q307 617 305.0 636.0Q303 655 302 667Q301 655 298.5 636.0Q296 617 294.0 595.0Q292 573 289 550L222 0Z"/><path transform="translate(600,0)" d="M300 -10Q234 -10 186.5 15.0Q139 40 113.5 87.5Q88 135 88 200V530Q88 596 113.5 643.0Q139 690 186.5 715.0Q234 740 300 740Q366 740 413.5 715.0Q461 690 486.5 643.0Q512 596 512 531V200Q512 135 486.5 87.5Q461 40 413.5 15.0Q366 -10 300 -10ZM300 71Q359 71 390.5 104.5Q422 138 422 200V530Q422 592 390.5 625.5Q359 659 300 659Q242 659 210.0 625.5Q178 592 178 530V200Q178 138 210.0 104.5Q242 71 300 71Z"/><path transform="translate(1200,0)" d="M92 0V730H318Q383 730 432.0 703.5Q481 677 508.0 630.0Q535 583 535 520Q535 446 496.5 393.0Q458 340 392 320L545 0H439L299 310H182V0ZM182 391H318Q374 391 408.0 426.5Q442 462 442 520Q442 579 408.0 614.0Q374 649 318 649H182Z"/><path transform="translate(1800,0)" d="M92 0V730H182V417H290L452 730H550L369 379L560 0H457L287 338H182V0Z"/><path transform="translate(2400,0)" d="M95 0V731H525V649H183V406H499V324H185V0Z"/><path transform="translate(3000,0)" d="M115 0V730H205V82H535V0Z"/><path transform="translate(3600,0)" d="M300 -10Q234 -10 186.5 15.0Q139 40 113.5 87.5Q88 135 88 200V530Q88 596 113.5 643.0Q139 690 186.5 715.0Q234 740 300 740Q366 740 413.5 715.0Q461 690 486.5 643.0Q512 596 512 531V200Q512 135 486.5 87.5Q461 40 413.5 15.0Q366 -10 300 -10ZM300 71Q359 71 390.5 104.5Q422 138 422 200V530Q422 592 390.5 625.5Q359 659 300 659Q242 659 210.0 625.5Q178 592 178 530V200Q178 138 210.0 104.5Q242 71 300 71Z"/><path transform="translate(4200,0)" d="M109 0 25 730H111L166 190Q168 168 170.0 144.5Q172 121 173.5 100.0Q175 79 175 65Q177 79 178.5 100.0Q180 121 182.5 144.5Q185 168 188 190L256 730H349L411 190Q414 168 416.5 144.5Q419 121 421.5 100.0Q424 79 425 65Q426 79 427.5 100.0Q429 121 431.5 144.5Q434 168 436 190L493 730H575L489 0H376L314 550Q312 573 309.5 595.0Q307 617 305.0 636.0Q303 655 302 667Q301 655 298.5 636.0Q296 617 294.0 595.0Q292 573 289 550L222 0Z"/></g><g transform="translate(312,148.12) scale(0.0210,-0.0210)" fill="#9fd4f0"><path transform="translate(0,0)" d="M233 35 395 240Q405 253 418.0 265.5Q431 278 440 285V294Q427 293 407.0 291.5Q387 290 370 290H40V370H370Q387 370 407.0 368.5Q427 367 440 365V374Q433 380 420.5 393.0Q408 406 395 421L233 625H338L570 330L339 35Z"/></g><g transform="translate(352,148.12) scale(0.0210,-0.0210)" fill="#EAF2FB"><path transform="translate(0,0)" d="M255 0V649H55V731H545V649H345V0Z"/><path transform="translate(600,0)" d="M300 -10Q235 -10 186.5 16.0Q138 42 111.5 89.5Q85 137 85 200V350Q85 414 111.5 461.0Q138 508 186.5 534.0Q235 560 300 560Q365 560 413.5 534.0Q462 508 488.5 461.0Q515 414 515 350V253H173V200Q173 135 206.0 100.5Q239 66 300 66Q352 66 384.0 84.5Q416 103 423 140H513Q504 71 445.5 30.5Q387 -10 300 -10ZM427 313V350Q427 415 394.5 450.0Q362 485 300 485Q239 485 206.0 450.0Q173 415 173 350V321H434Z"/><path transform="translate(1200,0)" d="M111 0V550H199V445H220L191 380Q191 469 229.5 514.5Q268 560 344 560Q431 560 482.5 505.5Q534 451 534 358V325H444V350Q444 415 412.5 449.5Q381 484 323 484Q266 484 233.5 449.0Q201 414 201 350V0Z"/><path transform="translate(1800,0)" d="M66 0V550H145V484H163L149 460Q149 506 173.5 533.0Q198 560 240 560Q286 560 311.0 526.0Q336 492 336 430L309 484H351L332 460Q332 506 357.5 533.0Q383 560 425 560Q477 560 505.5 521.0Q534 482 534 418V0H451V419Q451 453 436.5 472.0Q422 491 394 491Q367 491 351.5 472.5Q336 454 336 420V0H264V419Q264 454 248.5 472.5Q233 491 205 491Q177 491 163.0 472.5Q149 454 149 420V0Z"/><path transform="translate(2400,0)" d="M85 0V82H280V468H110V550H370V82H555V0ZM315 649Q282 649 263.0 666.0Q244 683 244 712Q244 742 263.0 759.5Q282 777 315 777Q348 777 367.0 759.5Q386 742 386 712Q386 683 367.0 666.0Q348 649 315 649Z"/><path transform="translate(3000,0)" d="M92 0V550H182V445H201L182 424Q182 489 221.0 524.5Q260 560 329 560Q412 560 461.0 509.0Q510 458 510 370V0H420V360Q420 419 388.5 450.5Q357 482 303 482Q247 482 214.5 448.0Q182 414 182 350V0Z"/><path transform="translate(3600,0)" d="M252 -10Q165 -10 115.0 34.5Q65 79 65 155Q65 232 115.0 276.0Q165 320 250 320H420V375Q420 426 389.5 453.5Q359 481 303 481Q254 481 221.0 460.5Q188 440 183 405H93Q102 476 160.0 518.0Q218 560 305 560Q400 560 455.0 511.0Q510 462 510 378V0H422V105H407L422 120Q422 60 375.5 25.0Q329 -10 252 -10ZM274 61Q338 61 379.0 93.0Q420 125 420 175V253H252Q207 253 181.0 228.0Q155 203 155 160Q155 114 186.5 87.5Q218 61 274 61Z"/><path transform="translate(4200,0)" d="M375 0Q327 0 291.0 19.0Q255 38 235.0 73.0Q215 108 215 155V648H30V730H305V155Q305 121 324.0 101.5Q343 82 375 82H550V0Z"/><path transform="translate(4800,0)" d="M140 290V370H460V290Z"/><path transform="translate(5400,0)" d="M304 -10Q238 -10 188.5 15.0Q139 40 112.0 87.5Q85 135 85 200V350Q85 416 112.0 463.0Q139 510 188.5 535.0Q238 560 304 560Q399 560 457.0 509.0Q515 458 518 370H428Q425 423 392.5 451.5Q360 480 304 480Q245 480 210.0 446.5Q175 413 175 351V200Q175 138 210.0 104.0Q245 70 304 70Q360 70 392.5 99.0Q425 128 428 180H518Q515 92 457.0 41.0Q399 -10 304 -10Z"/><path transform="translate(6000,0)" d="M300 -10Q235 -10 186.5 16.0Q138 42 111.5 89.5Q85 137 85 200V350Q85 414 111.5 461.0Q138 508 186.5 534.0Q235 560 300 560Q365 560 413.5 534.0Q462 508 488.5 461.0Q515 414 515 350V253H173V200Q173 135 206.0 100.5Q239 66 300 66Q352 66 384.0 84.5Q416 103 423 140H513Q504 71 445.5 30.5Q387 -10 300 -10ZM427 313V350Q427 415 394.5 450.0Q362 485 300 485Q239 485 206.0 450.0Q173 415 173 350V321H434Z"/><path transform="translate(6600,0)" d="M92 0V550H182V445H201L182 424Q182 489 221.0 524.5Q260 560 329 560Q412 560 461.0 509.0Q510 458 510 370V0H420V360Q420 419 388.5 450.5Q357 482 303 482Q247 482 214.5 448.0Q182 414 182 350V0Z"/><path transform="translate(7200,0)" d="M360 0Q289 0 249.5 38.0Q210 76 210 145V468H55V550H210V705H300V550H520V468H300V145Q300 82 360 82H510V0Z"/><path transform="translate(7800,0)" d="M111 0V550H199V445H220L191 380Q191 469 229.5 514.5Q268 560 344 560Q431 560 482.5 505.5Q534 451 534 358V325H444V350Q444 415 412.5 449.5Q381 484 323 484Q266 484 233.5 449.0Q201 414 201 350V0Z"/><path transform="translate(8400,0)" d="M85 0V82H280V468H110V550H370V82H555V0ZM315 649Q282 649 263.0 666.0Q244 683 244 712Q244 742 263.0 759.5Q282 777 315 777Q348 777 367.0 759.5Q386 742 386 712Q386 683 367.0 666.0Q348 649 315 649Z"/><path transform="translate(9000,0)" d="M304 -10Q238 -10 188.5 15.0Q139 40 112.0 87.5Q85 135 85 200V350Q85 416 112.0 463.0Q139 510 188.5 535.0Q238 560 304 560Q399 560 457.0 509.0Q515 458 518 370H428Q425 423 392.5 451.5Q360 480 304 480Q245 480 210.0 446.5Q175 413 175 351V200Q175 138 210.0 104.0Q245 70 304 70Q360 70 392.5 99.0Q425 128 428 180H518Q515 92 457.0 41.0Q399 -10 304 -10Z"/><path transform="translate(10200,0)" d="M300 260Q262 260 239.5 282.0Q217 304 217 341Q217 380 239.5 403.0Q262 426 300 426Q338 426 360.5 403.0Q383 380 383 341Q383 304 360.5 282.0Q338 260 300 260Z"/><path transform="translate(11400,0)" d="M90 0V82H288V655L90 507V607L255 730H378V82H540V0Z"/><path transform="translate(12000,0)" d="M301 -10Q231 -10 178.5 19.5Q126 49 97.0 102.0Q68 155 68 225Q68 280 83.5 333.0Q99 386 130 435L313 730H413L206 398L210 395Q229 423 262.0 438.0Q295 453 336 453Q396 453 440.0 425.0Q484 397 508.0 346.0Q532 295 532 225Q532 155 503.0 102.0Q474 49 422.5 19.5Q371 -10 301 -10ZM300 70Q364 70 403.0 112.5Q442 155 442 225Q442 295 403.0 337.5Q364 380 300 380Q236 380 197.0 337.5Q158 295 158 225Q158 155 197.0 112.5Q236 70 300 70Z"/><path transform="translate(12600,0)" d="M289 -10Q223 -10 173.5 16.5Q124 43 97.0 90.0Q70 137 70 200H160Q160 139 194.5 104.5Q229 70 290 70Q352 70 386.0 106.0Q420 142 420 200V252Q420 314 386.0 348.0Q352 382 290 382H215V472L396 648H100V730H487V640L292 451V462Q392 462 451.0 405.0Q510 348 510 252V200Q510 137 482.5 90.0Q455 43 405.0 16.5Q355 -10 289 -10Z"/><path transform="translate(13800,0)" d="M109 0 25 730H111L166 190Q168 168 170.0 144.5Q172 121 173.5 100.0Q175 79 175 65Q177 79 178.5 100.0Q180 121 182.5 144.5Q185 168 188 190L256 730H349L411 190Q414 168 416.5 144.5Q419 121 421.5 100.0Q424 79 425 65Q426 79 427.5 100.0Q429 121 431.5 144.5Q434 168 436 190L493 730H575L489 0H376L314 550Q312 573 309.5 595.0Q307 617 305.0 636.0Q303 655 302 667Q301 655 298.5 636.0Q296 617 294.0 595.0Q292 573 289 550L222 0Z"/><path transform="translate(14400,0)" d="M92 0V730H327Q395 730 445.0 703.5Q495 677 522.5 629.0Q550 581 550 515Q550 450 522.5 401.5Q495 353 445.0 326.5Q395 300 327 300H182V0ZM182 381H327Q386 381 421.5 417.5Q457 454 457 515Q457 577 421.5 613.0Q386 649 327 649H182Z"/><path transform="translate(15000,0)" d="M76 0V730H194L270 494Q281 462 290.0 430.5Q299 399 303 382Q308 399 316.0 430.5Q324 462 334 495L406 730H524V0H436V265Q436 309 439.0 365.0Q442 421 447.0 479.5Q452 538 457.5 591.5Q463 645 467 685L349 320H254L135 685Q140 646 145.0 594.5Q150 543 154.0 485.5Q158 428 161.0 371.0Q164 314 164 265V0Z"/></g><g transform="translate(48,181.12) scale(0.0210,-0.0210)" fill="#74c4ec"><path transform="translate(0,0)" d="M50 0 240 730H361L550 0H459L411 194H190L142 0ZM208 270H392L336 495Q320 559 311.0 602.0Q302 645 300 658Q298 645 289.0 602.0Q280 559 264 496Z"/><path transform="translate(600,0)" d="M92 0V730H318Q383 730 432.0 703.5Q481 677 508.0 630.0Q535 583 535 520Q535 446 496.5 393.0Q458 340 392 320L545 0H439L299 310H182V0ZM182 391H318Q374 391 408.0 426.5Q442 462 442 520Q442 579 408.0 614.0Q374 649 318 649H182Z"/><path transform="translate(1200,0)" d="M100 0V730H520V648H189V422H485V341H189V82H520V0Z"/><path transform="translate(1800,0)" d="M90 0V730H210L433 105Q431 130 428.5 166.5Q426 203 424.5 243.5Q423 284 423 320V730H510V0H390L168 625Q170 601 172.0 564.5Q174 528 175.5 487.5Q177 447 177 410V0Z"/><path transform="translate(2400,0)" d="M50 0 240 730H361L550 0H459L411 194H190L142 0ZM208 270H392L336 495Q320 559 311.0 602.0Q302 645 300 658Q298 645 289.0 602.0Q280 559 264 496Z"/></g><g transform="translate(312,181.12) scale(0.0210,-0.0210)" fill="#9fd4f0"><path transform="translate(0,0)" d="M233 35 395 240Q405 253 418.0 265.5Q431 278 440 285V294Q427 293 407.0 291.5Q387 290 370 290H40V370H370Q387 370 407.0 368.5Q427 367 440 365V374Q433 380 420.5 393.0Q408 406 395 421L233 625H338L570 330L339 35Z"/></g><g transform="translate(352,181.12) scale(0.0210,-0.0210)" fill="#EAF2FB"><path transform="translate(0,0)" d="M304 -10Q238 -10 189.5 15.0Q141 40 114.5 87.5Q88 135 88 200V530Q88 596 114.5 643.0Q141 690 189.5 715.0Q238 740 304 740Q370 740 418.0 714.5Q466 689 492.0 642.0Q518 595 518 530H428Q428 592 395.5 625.5Q363 659 304 659Q245 659 211.5 626.0Q178 593 178 531V200Q178 138 211.5 104.5Q245 71 304 71Q363 71 395.5 104.5Q428 138 428 200H518Q518 136 492.0 88.5Q466 41 418.0 15.5Q370 -10 304 -10Z"/><path transform="translate(600,0)" d="M300 -8Q234 -8 186.0 17.0Q138 42 111.5 89.5Q85 137 85 202V348Q85 414 111.5 461.0Q138 508 186.0 533.0Q234 558 300 558Q366 558 414.0 533.0Q462 508 488.5 461.0Q515 414 515 349V202Q515 137 488.5 89.5Q462 42 414.0 17.0Q366 -8 300 -8ZM300 72Q359 72 392.0 105.0Q425 138 425 202V348Q425 412 392.0 445.0Q359 478 300 478Q242 478 208.5 445.0Q175 412 175 348V202Q175 138 208.5 105.0Q242 72 300 72Z"/><path transform="translate(1200,0)" d="M268 -10Q186 -10 135.5 45.0Q85 100 85 194V355Q85 450 135.0 505.0Q185 560 268 560Q336 560 377.0 523.0Q418 486 418 424L400 445H420L418 570V730H508V0H418V105H400L418 126Q418 63 377.0 26.5Q336 -10 268 -10ZM298 68Q354 68 386.0 103.0Q418 138 418 200V350Q418 412 386.0 447.0Q354 482 298 482Q241 482 208.0 448.0Q175 414 175 350V200Q175 136 208.0 102.0Q241 68 298 68Z"/><path transform="translate(1800,0)" d="M300 -10Q235 -10 186.5 16.0Q138 42 111.5 89.5Q85 137 85 200V350Q85 414 111.5 461.0Q138 508 186.5 534.0Q235 560 300 560Q365 560 413.5 534.0Q462 508 488.5 461.0Q515 414 515 350V253H173V200Q173 135 206.0 100.5Q239 66 300 66Q352 66 384.0 84.5Q416 103 423 140H513Q504 71 445.5 30.5Q387 -10 300 -10ZM427 313V350Q427 415 394.5 450.0Q362 485 300 485Q239 485 206.0 450.0Q173 415 173 350V321H434Z"/><path transform="translate(2400,0)" d="M220 0V413H60V495H220V590Q220 655 261.0 692.5Q302 730 374 730H535V648H374Q343 648 326.5 633.5Q310 619 310 590V495H535V413H310V0Z"/><path transform="translate(3000,0)" d="M300 -8Q234 -8 186.0 17.0Q138 42 111.5 89.5Q85 137 85 202V348Q85 414 111.5 461.0Q138 508 186.0 533.0Q234 558 300 558Q366 558 414.0 533.0Q462 508 488.5 461.0Q515 414 515 349V202Q515 137 488.5 89.5Q462 42 414.0 17.0Q366 -8 300 -8ZM300 72Q359 72 392.0 105.0Q425 138 425 202V348Q425 412 392.0 445.0Q359 478 300 478Q242 478 208.5 445.0Q175 412 175 348V202Q175 138 208.5 105.0Q242 72 300 72Z"/><path transform="translate(3600,0)" d="M111 0V550H199V445H220L191 380Q191 469 229.5 514.5Q268 560 344 560Q431 560 482.5 505.5Q534 451 534 358V325H444V350Q444 415 412.5 449.5Q381 484 323 484Q266 484 233.5 449.0Q201 414 201 350V0Z"/><path transform="translate(4200,0)" d="M304 -10Q238 -10 188.5 15.0Q139 40 112.0 87.5Q85 135 85 200V350Q85 416 112.0 463.0Q139 510 188.5 535.0Q238 560 304 560Q399 560 457.0 509.0Q515 458 518 370H428Q425 423 392.5 451.5Q360 480 304 480Q245 480 210.0 446.5Q175 413 175 351V200Q175 138 210.0 104.0Q245 70 304 70Q360 70 392.5 99.0Q425 128 428 180H518Q515 92 457.0 41.0Q399 -10 304 -10Z"/><path transform="translate(4800,0)" d="M300 -10Q235 -10 186.5 16.0Q138 42 111.5 89.5Q85 137 85 200V350Q85 414 111.5 461.0Q138 508 186.5 534.0Q235 560 300 560Q365 560 413.5 534.0Q462 508 488.5 461.0Q515 414 515 350V253H173V200Q173 135 206.0 100.5Q239 66 300 66Q352 66 384.0 84.5Q416 103 423 140H513Q504 71 445.5 30.5Q387 -10 300 -10ZM427 313V350Q427 415 394.5 450.0Q362 485 300 485Q239 485 206.0 450.0Q173 415 173 350V321H434Z"/><path transform="translate(5400,0)" d="M283 -8Q227 -8 185.5 9.5Q144 27 119.5 59.0Q95 91 90 135H180Q186 106 212.5 89.0Q239 72 283 72H325Q378 72 404.0 93.5Q430 115 430 151Q430 186 406.5 206.5Q383 227 337 234L263 246Q182 260 142.5 296.5Q103 333 103 403Q103 477 150.0 517.5Q197 558 291 558H329Q408 558 456.0 521.0Q504 484 514 421H424Q418 447 394.0 462.5Q370 478 329 478H291Q240 478 216.5 459.0Q193 440 193 402Q193 368 213.0 352.0Q233 336 276 329L350 317Q439 303 479.5 265.0Q520 227 520 155Q520 79 471.5 35.5Q423 -8 325 -8Z"/><path transform="translate(6600,0)" d="M300 260Q262 260 239.5 282.0Q217 304 217 341Q217 380 239.5 403.0Q262 426 300 426Q338 426 360.5 403.0Q383 380 383 341Q383 304 360.5 282.0Q338 260 300 260Z"/><path transform="translate(7800,0)" d="M115 0V730H205V82H535V0Z"/><path transform="translate(8400,0)" d="M300 -10Q235 -10 186.5 16.0Q138 42 111.5 89.5Q85 137 85 200V350Q85 414 111.5 461.0Q138 508 186.5 534.0Q235 560 300 560Q365 560 413.5 534.0Q462 508 488.5 461.0Q515 414 515 350V253H173V200Q173 135 206.0 100.5Q239 66 300 66Q352 66 384.0 84.5Q416 103 423 140H513Q504 71 445.5 30.5Q387 -10 300 -10ZM427 313V350Q427 415 394.5 450.0Q362 485 300 485Q239 485 206.0 450.0Q173 415 173 350V321H434Z"/><path transform="translate(9000,0)" d="M300 -10Q235 -10 186.5 16.0Q138 42 111.5 89.5Q85 137 85 200V350Q85 414 111.5 461.0Q138 508 186.5 534.0Q235 560 300 560Q365 560 413.5 534.0Q462 508 488.5 461.0Q515 414 515 350V253H173V200Q173 135 206.0 100.5Q239 66 300 66Q352 66 384.0 84.5Q416 103 423 140H513Q504 71 445.5 30.5Q387 -10 300 -10ZM427 313V350Q427 415 394.5 450.0Q362 485 300 485Q239 485 206.0 450.0Q173 415 173 350V321H434Z"/><path transform="translate(9600,0)" d="M360 0Q289 0 249.5 38.0Q210 76 210 145V468H55V550H210V705H300V550H520V468H300V145Q300 82 360 82H510V0Z"/><path transform="translate(10200,0)" d="M304 -10Q238 -10 189.5 15.0Q141 40 114.5 87.5Q88 135 88 200V530Q88 596 114.5 643.0Q141 690 189.5 715.0Q238 740 304 740Q370 740 418.0 714.5Q466 689 492.0 642.0Q518 595 518 530H428Q428 592 395.5 625.5Q363 659 304 659Q245 659 211.5 626.0Q178 593 178 531V200Q178 138 211.5 104.5Q245 71 304 71Q363 71 395.5 104.5Q428 138 428 200H518Q518 136 492.0 88.5Q466 41 418.0 15.5Q370 -10 304 -10Z"/><path transform="translate(10800,0)" d="M300 -8Q234 -8 186.0 17.0Q138 42 111.5 89.5Q85 137 85 202V348Q85 414 111.5 461.0Q138 508 186.0 533.0Q234 558 300 558Q366 558 414.0 533.0Q462 508 488.5 461.0Q515 414 515 349V202Q515 137 488.5 89.5Q462 42 414.0 17.0Q366 -8 300 -8ZM300 72Q359 72 392.0 105.0Q425 138 425 202V348Q425 412 392.0 445.0Q359 478 300 478Q242 478 208.5 445.0Q175 412 175 348V202Q175 138 208.5 105.0Q242 72 300 72Z"/><path transform="translate(11400,0)" d="M268 -10Q186 -10 135.5 45.0Q85 100 85 194V355Q85 450 135.0 505.0Q185 560 268 560Q336 560 377.0 523.0Q418 486 418 424L400 445H420L418 570V730H508V0H418V105H400L418 126Q418 63 377.0 26.5Q336 -10 268 -10ZM298 68Q354 68 386.0 103.0Q418 138 418 200V350Q418 412 386.0 447.0Q354 482 298 482Q241 482 208.0 448.0Q175 414 175 350V200Q175 136 208.0 102.0Q241 68 298 68Z"/><path transform="translate(12000,0)" d="M300 -10Q235 -10 186.5 16.0Q138 42 111.5 89.5Q85 137 85 200V350Q85 414 111.5 461.0Q138 508 186.5 534.0Q235 560 300 560Q365 560 413.5 534.0Q462 508 488.5 461.0Q515 414 515 350V253H173V200Q173 135 206.0 100.5Q239 66 300 66Q352 66 384.0 84.5Q416 103 423 140H513Q504 71 445.5 30.5Q387 -10 300 -10ZM427 313V350Q427 415 394.5 450.0Q362 485 300 485Q239 485 206.0 450.0Q173 415 173 350V321H434Z"/></g><g transform="translate(48,214.12) scale(0.0210,-0.0210)" fill="#74c4ec"><path transform="translate(0,0)" d="M300 -10Q234 -10 186.5 15.0Q139 40 113.5 87.5Q88 135 88 200V530Q88 596 113.5 643.0Q139 690 186.5 715.0Q234 740 300 740Q366 740 413.5 715.0Q461 690 486.5 643.0Q512 596 512 531V200Q512 135 486.5 87.5Q461 40 413.5 15.0Q366 -10 300 -10ZM300 71Q359 71 390.5 104.5Q422 138 422 200V530Q422 592 390.5 625.5Q359 659 300 659Q242 659 210.0 625.5Q178 592 178 530V200Q178 138 210.0 104.5Q242 71 300 71Z"/><path transform="translate(600,0)" d="M92 0V730H327Q395 730 445.0 703.5Q495 677 522.5 629.0Q550 581 550 515Q550 450 522.5 401.5Q495 353 445.0 326.5Q395 300 327 300H182V0ZM182 381H327Q386 381 421.5 417.5Q457 454 457 515Q457 577 421.5 613.0Q386 649 327 649H182Z"/><path transform="translate(1200,0)" d="M100 0V730H520V648H189V422H485V341H189V82H520V0Z"/><path transform="translate(1800,0)" d="M90 0V730H210L433 105Q431 130 428.5 166.5Q426 203 424.5 243.5Q423 284 423 320V730H510V0H390L168 625Q170 601 172.0 564.5Q174 528 175.5 487.5Q177 447 177 410V0Z"/><path transform="translate(3000,0)" d="M255 0V649H55V731H545V649H345V0Z"/><path transform="translate(3600,0)" d="M300 -10Q234 -10 186.5 15.0Q139 40 113.5 87.5Q88 135 88 200V530Q88 596 113.5 643.0Q139 690 186.5 715.0Q234 740 300 740Q366 740 413.5 715.0Q461 690 486.5 643.0Q512 596 512 531V200Q512 135 486.5 87.5Q461 40 413.5 15.0Q366 -10 300 -10ZM300 71Q359 71 390.5 104.5Q422 138 422 200V530Q422 592 390.5 625.5Q359 659 300 659Q242 659 210.0 625.5Q178 592 178 530V200Q178 138 210.0 104.5Q242 71 300 71Z"/></g><g transform="translate(312,214.12) scale(0.0210,-0.0210)" fill="#9fd4f0"><path transform="translate(0,0)" d="M233 35 395 240Q405 253 418.0 265.5Q431 278 440 285V294Q427 293 407.0 291.5Q387 290 370 290H40V370H370Q387 370 407.0 368.5Q427 367 440 365V374Q433 380 420.5 393.0Q408 406 395 421L233 625H338L570 330L339 35Z"/></g><g transform="translate(352,214.12) scale(0.0210,-0.0210)" fill="#EAF2FB"><path transform="translate(0,0)" d="M300 -10Q234 -10 186.5 15.0Q139 40 113.5 87.5Q88 135 88 200V530Q88 596 113.5 643.0Q139 690 186.5 715.0Q234 740 300 740Q366 740 413.5 715.0Q461 690 486.5 643.0Q512 596 512 531V200Q512 135 486.5 87.5Q461 40 413.5 15.0Q366 -10 300 -10ZM300 71Q359 71 390.5 104.5Q422 138 422 200V530Q422 592 390.5 625.5Q359 659 300 659Q242 659 210.0 625.5Q178 592 178 530V200Q178 138 210.0 104.5Q242 71 300 71Z"/><path transform="translate(600,0)" d="M92 -180V550H182V445H200L182 424Q182 487 223.5 523.5Q265 560 333 560Q416 560 465.5 505.5Q515 451 515 356V195Q515 132 492.5 86.0Q470 40 429.5 15.0Q389 -10 333 -10Q266 -10 224.0 27.0Q182 64 182 126L200 105H180L182 -20V-180ZM303 68Q360 68 392.5 102.0Q425 136 425 200V350Q425 414 392.5 448.0Q360 482 303 482Q248 482 215.0 447.0Q182 412 182 350V200Q182 138 215.0 103.0Q248 68 303 68Z"/><path transform="translate(1200,0)" d="M300 -10Q235 -10 186.5 16.0Q138 42 111.5 89.5Q85 137 85 200V350Q85 414 111.5 461.0Q138 508 186.5 534.0Q235 560 300 560Q365 560 413.5 534.0Q462 508 488.5 461.0Q515 414 515 350V253H173V200Q173 135 206.0 100.5Q239 66 300 66Q352 66 384.0 84.5Q416 103 423 140H513Q504 71 445.5 30.5Q387 -10 300 -10ZM427 313V350Q427 415 394.5 450.0Q362 485 300 485Q239 485 206.0 450.0Q173 415 173 350V321H434Z"/><path transform="translate(1800,0)" d="M92 0V550H182V445H201L182 424Q182 489 221.0 524.5Q260 560 329 560Q412 560 461.0 509.0Q510 458 510 370V0H420V360Q420 419 388.5 450.5Q357 482 303 482Q247 482 214.5 448.0Q182 414 182 350V0Z"/><path transform="translate(2400,0)" d="M140 290V370H460V290Z"/><path transform="translate(3000,0)" d="M283 -8Q227 -8 185.5 9.5Q144 27 119.5 59.0Q95 91 90 135H180Q186 106 212.5 89.0Q239 72 283 72H325Q378 72 404.0 93.5Q430 115 430 151Q430 186 406.5 206.5Q383 227 337 234L263 246Q182 260 142.5 296.5Q103 333 103 403Q103 477 150.0 517.5Q197 558 291 558H329Q408 558 456.0 521.0Q504 484 514 421H424Q418 447 394.0 462.5Q370 478 329 478H291Q240 478 216.5 459.0Q193 440 193 402Q193 368 213.0 352.0Q233 336 276 329L350 317Q439 303 479.5 265.0Q520 227 520 155Q520 79 471.5 35.5Q423 -8 325 -8Z"/><path transform="translate(3600,0)" d="M300 -8Q234 -8 186.0 17.0Q138 42 111.5 89.5Q85 137 85 202V348Q85 414 111.5 461.0Q138 508 186.0 533.0Q234 558 300 558Q366 558 414.0 533.0Q462 508 488.5 461.0Q515 414 515 349V202Q515 137 488.5 89.5Q462 42 414.0 17.0Q366 -8 300 -8ZM300 72Q359 72 392.0 105.0Q425 138 425 202V348Q425 412 392.0 445.0Q359 478 300 478Q242 478 208.5 445.0Q175 412 175 348V202Q175 138 208.5 105.0Q242 72 300 72Z"/><path transform="translate(4200,0)" d="M299 -10Q204 -10 147.0 46.5Q90 103 90 200V550H180V200Q180 138 212.0 103.5Q244 69 299 69Q355 69 387.5 103.5Q420 138 420 200V550H510V200Q510 103 452.0 46.5Q394 -10 299 -10Z"/><path transform="translate(4800,0)" d="M111 0V550H199V445H220L191 380Q191 469 229.5 514.5Q268 560 344 560Q431 560 482.5 505.5Q534 451 534 358V325H444V350Q444 415 412.5 449.5Q381 484 323 484Q266 484 233.5 449.0Q201 414 201 350V0Z"/><path transform="translate(5400,0)" d="M304 -10Q238 -10 188.5 15.0Q139 40 112.0 87.5Q85 135 85 200V350Q85 416 112.0 463.0Q139 510 188.5 535.0Q238 560 304 560Q399 560 457.0 509.0Q515 458 518 370H428Q425 423 392.5 451.5Q360 480 304 480Q245 480 210.0 446.5Q175 413 175 351V200Q175 138 210.0 104.0Q245 70 304 70Q360 70 392.5 99.0Q425 128 428 180H518Q515 92 457.0 41.0Q399 -10 304 -10Z"/><path transform="translate(6000,0)" d="M300 -10Q235 -10 186.5 16.0Q138 42 111.5 89.5Q85 137 85 200V350Q85 414 111.5 461.0Q138 508 186.5 534.0Q235 560 300 560Q365 560 413.5 534.0Q462 508 488.5 461.0Q515 414 515 350V253H173V200Q173 135 206.0 100.5Q239 66 300 66Q352 66 384.0 84.5Q416 103 423 140H513Q504 71 445.5 30.5Q387 -10 300 -10ZM427 313V350Q427 415 394.5 450.0Q362 485 300 485Q239 485 206.0 450.0Q173 415 173 350V321H434Z"/><path transform="translate(7200,0)" d="M304 -10Q238 -10 188.5 15.0Q139 40 112.0 87.5Q85 135 85 200V350Q85 416 112.0 463.0Q139 510 188.5 535.0Q238 560 304 560Q399 560 457.0 509.0Q515 458 518 370H428Q425 423 392.5 451.5Q360 480 304 480Q245 480 210.0 446.5Q175 413 175 351V200Q175 138 210.0 104.0Q245 70 304 70Q360 70 392.5 99.0Q425 128 428 180H518Q515 92 457.0 41.0Q399 -10 304 -10Z"/><path transform="translate(7800,0)" d="M300 -8Q234 -8 186.0 17.0Q138 42 111.5 89.5Q85 137 85 202V348Q85 414 111.5 461.0Q138 508 186.0 533.0Q234 558 300 558Q366 558 414.0 533.0Q462 508 488.5 461.0Q515 414 515 349V202Q515 137 488.5 89.5Q462 42 414.0 17.0Q366 -8 300 -8ZM300 72Q359 72 392.0 105.0Q425 138 425 202V348Q425 412 392.0 445.0Q359 478 300 478Q242 478 208.5 445.0Q175 412 175 348V202Q175 138 208.5 105.0Q242 72 300 72Z"/><path transform="translate(8400,0)" d="M92 0V550H182V445H201L182 424Q182 489 221.0 524.5Q260 560 329 560Q412 560 461.0 509.0Q510 458 510 370V0H420V360Q420 419 388.5 450.5Q357 482 303 482Q247 482 214.5 448.0Q182 414 182 350V0Z"/><path transform="translate(9000,0)" d="M360 0Q289 0 249.5 38.0Q210 76 210 145V468H55V550H210V705H300V550H520V468H300V145Q300 82 360 82H510V0Z"/><path transform="translate(9600,0)" d="M111 0V550H199V445H220L191 380Q191 469 229.5 514.5Q268 560 344 560Q431 560 482.5 505.5Q534 451 534 358V325H444V350Q444 415 412.5 449.5Q381 484 323 484Q266 484 233.5 449.0Q201 414 201 350V0Z"/><path transform="translate(10200,0)" d="M85 0V82H280V468H110V550H370V82H555V0ZM315 649Q282 649 263.0 666.0Q244 683 244 712Q244 742 263.0 759.5Q282 777 315 777Q348 777 367.0 759.5Q386 742 386 712Q386 683 367.0 666.0Q348 649 315 649Z"/><path transform="translate(10800,0)" d="M332 -10Q264 -10 223.0 26.5Q182 63 182 126L200 105H182V0H92V730H182V570L180 445H200L182 424Q182 486 223.5 523.0Q265 560 332 560Q415 560 465.0 505.0Q515 450 515 355V194Q515 100 465.0 45.0Q415 -10 332 -10ZM302 68Q359 68 392.0 102.0Q425 136 425 200V350Q425 414 392.0 448.0Q359 482 302 482Q247 482 214.5 447.0Q182 412 182 350V200Q182 138 214.5 103.0Q247 68 302 68Z"/><path transform="translate(11400,0)" d="M299 -10Q204 -10 147.0 46.5Q90 103 90 200V550H180V200Q180 138 212.0 103.5Q244 69 299 69Q355 69 387.5 103.5Q420 138 420 200V550H510V200Q510 103 452.0 46.5Q394 -10 299 -10Z"/><path transform="translate(12000,0)" d="M360 0Q289 0 249.5 38.0Q210 76 210 145V468H55V550H210V705H300V550H520V468H300V145Q300 82 360 82H510V0Z"/><path transform="translate(12600,0)" d="M85 0V82H280V468H110V550H370V82H555V0ZM315 649Q282 649 263.0 666.0Q244 683 244 712Q244 742 263.0 759.5Q282 777 315 777Q348 777 367.0 759.5Q386 742 386 712Q386 683 367.0 666.0Q348 649 315 649Z"/><path transform="translate(13200,0)" d="M300 -8Q234 -8 186.0 17.0Q138 42 111.5 89.5Q85 137 85 202V348Q85 414 111.5 461.0Q138 508 186.0 533.0Q234 558 300 558Q366 558 414.0 533.0Q462 508 488.5 461.0Q515 414 515 349V202Q515 137 488.5 89.5Q462 42 414.0 17.0Q366 -8 300 -8ZM300 72Q359 72 392.0 105.0Q425 138 425 202V348Q425 412 392.0 445.0Q359 478 300 478Q242 478 208.5 445.0Q175 412 175 348V202Q175 138 208.5 105.0Q242 72 300 72Z"/><path transform="translate(13800,0)" d="M92 0V550H182V445H201L182 424Q182 489 221.0 524.5Q260 560 329 560Q412 560 461.0 509.0Q510 458 510 370V0H420V360Q420 419 388.5 450.5Q357 482 303 482Q247 482 214.5 448.0Q182 414 182 350V0Z"/><path transform="translate(14400,0)" d="M283 -8Q227 -8 185.5 9.5Q144 27 119.5 59.0Q95 91 90 135H180Q186 106 212.5 89.0Q239 72 283 72H325Q378 72 404.0 93.5Q430 115 430 151Q430 186 406.5 206.5Q383 227 337 234L263 246Q182 260 142.5 296.5Q103 333 103 403Q103 477 150.0 517.5Q197 558 291 558H329Q408 558 456.0 521.0Q504 484 514 421H424Q418 447 394.0 462.5Q370 478 329 478H291Q240 478 216.5 459.0Q193 440 193 402Q193 368 213.0 352.0Q233 336 276 329L350 317Q439 303 479.5 265.0Q520 227 520 155Q520 79 471.5 35.5Q423 -8 325 -8Z"/></g>
  </g>
  <rect x="0.75" y="0.75" width="878.5" height="258" rx="14" fill="none" stroke="#6cc2f0" stroke-opacity="0.25" stroke-width="1.5"/>
</svg>
